<?xml version="1.0" standalone="no"?>
<!DOCTYPE svg PUBLIC "-//W3C//DTD SVG 1.1//EN" "http://www.w3.org/Graphics/SVG/1.1/DTD/svg11.dtd" >
<svg>
<metadata>
Created by FontForge 20110222 at Mon Mar  7 13:19:02 2011
 By www-data
Copyright (c) 2010 by Dannci. All rights reserved.
</metadata>
<defs>
<font id="GaboDrive" horiz-adv-x="1047" >
  <font-face 
    font-family="Gabo Drive"
    font-weight="400"
    font-stretch="condensed"
    units-per-em="2048"
    panose-1="2 11 8 6 3 9 2 5 2 4"
    ascent="1638"
    descent="-410"
    x-height="1327"
    cap-height="1620"
    bbox="-113 -543 2583 2214"
    underline-thickness="102"
    underline-position="-154"
    unicode-range="U+0020-2122"
  />
    <missing-glyph />
    <glyph glyph-name="space" unicode=" " horiz-adv-x="361" 
 />
    <glyph glyph-name="exclam" unicode="!" horiz-adv-x="553" 
d="M105 1620l378 -1v-1219h-378v1220zM105 324h378v-324h-378v324z" />
    <glyph glyph-name="quotedbl" unicode="&#x22;" horiz-adv-x="757" 
d="M343 1098h-254l-53 273v248h306v-248zM721 1098h-253l-53 273v248h306v-248v-273z" />
    <glyph glyph-name="numbersign" unicode="#" horiz-adv-x="1283" 
d="M36 871v190h308l84 383l245 1l-84 -383h232l82 383l256 -1l-82 -383h170v-190h-206l-63 -302h269v-189h-305l-82 -380l-257 1l83 380h-236l-78 -380l-247 -1l81 380h-170v189h209l63 302h-272zM785 872h-232l-63 -301h233z" />
    <glyph glyph-name="dollar" unicode="$" horiz-adv-x="1121" 
d="M1023 1223v-331l-408 255v67c0 71 -5 118 -14 140s-29 33 -60 33c-49 0 -74 -38 -74 -114c0 -63 13 -108 38 -133s97 -75 218 -148c103 -62 173 -110 210 -143c75 -65 133 -185 133 -365c0 -288 -139 -452 -416 -491v-152h-186v157c-108 11 -202 52 -283 124
c-81 73 -121 199 -121 379l2 349l402 -270v-99c0 -109 4 -176 12 -203c9 -26 29 -39 61 -39c55 0 81 37 81 109c0 91 -6 155 -19 194s-56 82 -130 128c-123 77 -207 134 -252 170c-44 37 -82 88 -115 154c-32 66 -48 141 -48 224c0 241 137 379 410 411v129h186v-129
c249 -32 373 -167 373 -406z" />
    <glyph glyph-name="percent" unicode="%" horiz-adv-x="1419" 
d="M951 1650h152l-633 -1681h-154zM632 1343v-278c0 -73 -7 -127 -21 -164c-13 -36 -43 -68 -88 -95s-104 -40 -178 -40c-85 0 -150 13 -195 38c-45 26 -75 57 -91 93c-15 36 -23 88 -23 155v291c0 80 8 139 24 177c33 77 131 130 268 130c76 0 138 -13 185 -40
c47 -26 79 -58 95 -95s24 -95 24 -172zM392 1000v415c-11 42 -18 68 -23 78c-4 10 -16 15 -35 15c-18 0 -30 -5 -35 -16s-14 -36 -27 -77v-408c13 -47 21 -76 26 -85s17 -14 37 -14c17 0 28 5 33 16s13 36 24 76zM1383 561v-279c0 -72 -7 -126 -21 -163
c-27 -73 -118 -136 -266 -136c-85 0 -150 13 -195 39s-75 57 -91 93c-15 36 -23 87 -23 154v292c0 79 8 138 24 176c33 77 131 131 268 131c77 0 139 -13 186 -40s79 -59 94 -96c16 -37 24 -94 24 -171zM1139 219v414c-8 41 -14 67 -19 77c-4 11 -16 16 -35 16
c-18 0 -30 -5 -35 -16s-12 -37 -23 -79l2 -408c9 -46 16 -74 21 -83s17 -14 36 -14c18 0 29 5 34 15c5 11 11 37 19 78z" />
    <glyph glyph-name="ampersand" unicode="&#x26;" horiz-adv-x="1180" 
d="M945 454l242 132v-328l-114 -72l107 -186h-373l-27 50c-140 -56 -266 -84 -378 -84c-117 0 -208 39 -271 117s-95 172 -95 282c0 88 19 157 56 207s104 93 201 130c-129 71 -193 172 -193 303c0 113 38 203 114 272s181 103 314 103c120 0 214 -34 283 -101
s104 -153 104 -257c0 -109 -42 -206 -126 -291zM529 899c45 59 68 116 68 170c0 47 -28 93 -76 93c-44 0 -67 -29 -67 -89c0 -63 25 -121 75 -174zM644 286l-131 216c-79 -51 -117 -97 -115 -138c-1 -69 27 -108 84 -115c45 -1 99 12 162 37z" />
    <glyph glyph-name="quotesingle" unicode="'" horiz-adv-x="379" 
d="M342 1098h-253l-53 273v248h306v-248v-273z" />
    <glyph glyph-name="parenleft" unicode="(" horiz-adv-x="642" 
d="M478 1619h127v-293c-55 0 -95 -11 -119 -33c-24 -21 -36 -72 -36 -151v-657c0 -74 11 -123 33 -148c23 -24 63 -36 122 -36v-301h-127c-117 0 -212 32 -285 95c-73 64 -109 164 -109 301v827c0 136 37 236 111 300s168 96 283 96z" />
    <glyph glyph-name="parenright" unicode=")" horiz-adv-x="642" 
d="M37 1327l-1 292h127c115 0 209 -32 283 -96s111 -164 111 -300v-827c0 -137 -36 -237 -109 -301c-73 -63 -168 -95 -285 -95h-127l3 300c59 0 100 12 122 36c23 25 34 74 34 148l-2 659c0 79 -12 130 -37 151c-24 22 -64 33 -119 33z" />
    <glyph glyph-name="asterisk" unicode="*" horiz-adv-x="575" 
d="M226 1619h126v-164l148 54l45 -118l-148 -62l93 -132l-100 -74l-101 133l-99 -133l-105 74l94 137l-149 57l43 118l153 -51v161z" />
    <glyph glyph-name="plus" unicode="+" horiz-adv-x="1092" 
d="M78 686v255h345v349h258v-349h347v-255h-347v-358h-258v358h-345z" />
    <glyph glyph-name="comma" unicode="," horiz-adv-x="344" 
d="M36 317h271v-145c0 -76 -9 -138 -27 -187c-36 -97 -132 -169 -244 -192v524z" />
    <glyph glyph-name="hyphen" unicode="-" horiz-adv-x="603" 
d="M23 802h554v-279h-554v279z" />
    <glyph glyph-name="hyphen" unicode="&#xad;" horiz-adv-x="603" 
d="M23 802h554v-279h-554v279z" />
    <glyph glyph-name="period" unicode="." horiz-adv-x="378" 
d="M35 318h305l1 -318h-305z" />
    <glyph glyph-name="slash" unicode="/" horiz-adv-x="810" 
d="M439 1649h303l-381 -1681h-306z" />
    <glyph glyph-name="zero" unicode="0" horiz-adv-x="1098" 
d="M1025 1071v-540c0 -123 -7 -212 -20 -268s-41 -108 -83 -157c-84 -97 -204 -137 -351 -137c-193 0 -318 43 -394 138c-38 47 -65 97 -81 149c-16 53 -24 136 -24 250v565c0 149 13 260 38 334c26 74 77 133 153 178c77 45 169 67 278 67c89 0 168 -16 238 -47
s122 -68 157 -113s58 -95 70 -151c13 -56 19 -145 19 -268zM636 404v802c-1 81 -8 134 -21 158c-13 25 -34 37 -65 37c-30 0 -53 -12 -69 -37c-15 -24 -23 -77 -23 -158v-790c3 -91 11 -146 24 -167c14 -21 36 -31 66 -31s52 11 66 32c14 22 21 73 22 154z" />
    <glyph glyph-name="one" unicode="1" horiz-adv-x="780" 
d="M392 1619h303v-1619h-404v819c0 125 -3 201 -9 226s-23 44 -50 57s-74 20 -141 21h-40v238c189 17 302 103 341 258z" />
    <glyph glyph-name="two" unicode="2" horiz-adv-x="1028" 
d="M504 301h487l-4 -301h-933v301c263 384 420 627 469 729c50 103 75 183 75 240c0 88 -30 131 -91 131c-31 0 -54 -12 -69 -36s-22 -72 -22 -143l-1 -22l-361 -114v41c0 91 5 162 14 214c9 53 32 104 69 155c73 101 190 154 354 154c161 0 282 -40 364 -120
c83 -79 124 -180 124 -302c0 -93 -23 -191 -70 -294c-46 -103 -181 -314 -405 -633z" />
    <glyph glyph-name="three" unicode="3" horiz-adv-x="1086" 
d="M831 917c61 -21 107 -55 137 -102s45 -157 45 -330c0 -129 -15 -229 -44 -300c-59 -141 -204 -217 -429 -217c-128 0 -229 21 -302 64s-121 96 -144 158c-23 63 -34 171 -34 325v60h361c-1 -241 29 -360 90 -358c65 -4 98 71 98 225v112c-2 188 -57 201 -192 207v201
c101 24 159 52 172 83c13 32 20 74 20 127v90c-2 87 -34 132 -95 135c-63 -3 -94 -52 -93 -146h-2l-359 -102v107c0 155 35 259 106 313c71 55 183 82 337 82c193 0 323 -38 392 -113s103 -180 103 -314c0 -91 -12 -156 -37 -197c-25 -40 -68 -77 -130 -110z" />
    <glyph glyph-name="four" unicode="4" horiz-adv-x="982" 
d="M361 1619h535v-1619h-404v285h-480v318zM329 603h163l-1 578z" />
    <glyph glyph-name="five" unicode="5" horiz-adv-x="1099" 
d="M87 1619h867v-294l-488 1v-240c54 73 130 110 229 110c111 0 198 -33 260 -100c63 -66 94 -188 94 -365v-231c0 -115 -8 -197 -25 -247c-16 -49 -42 -97 -78 -143c-72 -91 -201 -141 -386 -141c-104 0 -196 18 -275 54c-79 37 -132 91 -159 164c-26 73 -39 182 -39 325
v158l383 -80v-83c0 -105 4 -179 11 -223s33 -66 76 -66c20 0 36 6 48 19c13 13 22 26 28 41s10 79 11 192v321c0 61 -9 102 -27 123c-17 22 -41 33 -70 33c-19 0 -34 -6 -47 -17s-21 -24 -25 -37c-3 -13 -5 -43 -5 -90l-383 86v730z" />
    <glyph glyph-name="six" unicode="6" horiz-adv-x="1109" 
d="M1042 1091l-404 98c0 75 -1 123 -3 142c-3 40 -33 70 -82 70c-21 0 -41 -6 -60 -19c-19 -12 -30 -28 -32 -48s-3 -60 -3 -121v-258c65 85 140 129 257 129c74 0 137 -16 188 -49c103 -64 139 -191 139 -382v-129c0 -113 -4 -198 -13 -253s-32 -107 -70 -154
c-75 -93 -209 -148 -384 -148c-217 0 -352 62 -428 174c-37 57 -59 116 -66 178c-6 62 -9 182 -9 361v224c0 193 3 321 8 386c6 65 29 127 70 185c81 116 226 174 410 174c113 0 206 -18 279 -55s125 -88 156 -155s47 -183 47 -350zM652 381v303c0 115 -38 150 -95 150
c-28 0 -52 -10 -73 -30c-20 -20 -30 -60 -30 -119v-293c0 -71 10 -118 29 -141c20 -22 44 -33 73 -33c17 0 38 8 61 25s35 63 35 138z" />
    <glyph glyph-name="seven" unicode="7" horiz-adv-x="802" 
d="M12 1619h772v-353l-374 -1266h-402l405 1280h-399z" />
    <glyph glyph-name="eight" unicode="8" horiz-adv-x="1095" 
d="M843 918c59 -24 105 -60 137 -108c32 -47 48 -161 48 -340c0 -131 -13 -227 -38 -289c-51 -124 -196 -212 -443 -212c-120 0 -215 19 -285 57s-120 88 -151 151c-30 63 -45 167 -45 313c0 98 7 183 22 255s63 130 142 173c-100 48 -150 153 -150 314
c0 279 155 418 463 418c178 0 301 -37 369 -111s102 -180 102 -317c0 -87 -11 -150 -34 -189c-22 -39 -68 -77 -137 -115zM632 1157v111c0 55 -8 90 -23 107s-36 26 -63 26c-53 0 -84 -30 -84 -134v-123c0 -97 35 -130 86 -130c27 0 47 9 62 28s22 58 22 115zM640 388v207
c0 62 -9 103 -27 122c-18 20 -41 30 -68 30s-49 -10 -66 -29s-25 -61 -25 -124v-210c0 -70 9 -115 27 -136c19 -20 42 -30 70 -30c29 0 51 10 66 31s23 68 23 139z" />
    <glyph glyph-name="nine" unicode="9" horiz-adv-x="1109" 
d="M72 462l386 -71c0 -50 8 -92 25 -125s43 -49 79 -48c75 -1 94 66 94 187v258c-20 -43 -56 -76 -108 -97s-102 -32 -149 -31c-74 0 -139 20 -196 60s-93 88 -108 144s-23 132 -23 227v129c0 113 4 198 13 253s33 106 70 153c75 95 210 149 385 149c216 0 351 -62 427 -175
c38 -56 60 -115 66 -177s9 -182 9 -360v-225c0 -193 -3 -322 -8 -387s-29 -126 -70 -184c-81 -116 -225 -174 -409 -174c-114 0 -207 18 -280 55c-72 37 -124 88 -156 155c-31 67 -47 161 -47 284zM458 1237v-303c0 -68 9 -110 26 -126c18 -16 42 -24 73 -23
c28 0 51 10 70 29c19 20 29 60 29 119v293c0 71 -9 118 -28 141c-18 23 -41 34 -70 34c-17 0 -38 -9 -63 -26s-37 -63 -37 -138z" />
    <glyph glyph-name="colon" unicode=":" horiz-adv-x="414" 
d="M72 1054h305v-329h-305v329zM72 364h305v-330h-305v330z" />
    <glyph glyph-name="semicolon" unicode=";" horiz-adv-x="414" 
d="M72 1054h305v-329h-305v329zM75 317h285v-145c0 -76 -9 -138 -27 -187c-36 -97 -127 -169 -258 -192v524z" />
    <glyph glyph-name="semicolon" unicode="&#x37e;" horiz-adv-x="414" 
d="M72 1054h305v-329h-305v329zM75 317h285v-145c0 -76 -9 -138 -27 -187c-36 -97 -127 -169 -258 -192v524z" />
    <glyph glyph-name="less" unicode="&#x3c;" horiz-adv-x="1092" 
d="M1027 589v-265l-962 401v203l962 402v-264l-542 -240z" />
    <glyph glyph-name="equal" unicode="=" horiz-adv-x="1092" 
d="M81 877v244l932 2v-244zM81 495v244l932 2v-244z" />
    <glyph glyph-name="greater" unicode="&#x3e;" horiz-adv-x="1092" 
d="M65 1065v265l962 -400v-204l-962 -402v264l533 238z" />
    <glyph glyph-name="question" unicode="?" horiz-adv-x="1075" 
d="M260 745c-106 260 -149 450 -129 569c41 239 191 339 426 339c85 0 159 -13 222 -40s118 -76 164 -148c47 -72 65 -182 56 -330c-4 -129 -115 -372 -332 -728h-377l332 861c33 103 2 150 -47 150c-31 0 -54 -14 -70 -41c-15 -27 -97 -237 -245 -632zM290 324h377v-324
h-377v324z" />
    <glyph glyph-name="at" unicode="@" horiz-adv-x="1587" 
d="M995 1308h198l-127 -792c-3 -17 -4 -29 -4 -35c0 -26 12 -39 37 -39c40 0 83 19 130 57c47 39 88 96 123 171s53 163 53 264c0 170 -51 307 -154 412c-102 105 -235 158 -399 158c-195 0 -355 -67 -480 -200s-188 -310 -188 -532c0 -214 61 -384 183 -510
c123 -125 279 -188 468 -188c187 0 354 63 505 187h210c-87 -111 -194 -194 -323 -251c-128 -57 -258 -85 -391 -85c-227 0 -418 77 -571 230c-153 154 -229 357 -229 608c0 249 71 460 214 632s341 258 595 258c151 0 275 -29 371 -88c96 -58 176 -139 240 -244
c65 -104 97 -233 97 -387c0 -205 -57 -366 -171 -484c-114 -117 -228 -176 -343 -176c-86 0 -138 40 -157 119c-45 -46 -85 -78 -118 -95s-72 -25 -118 -25c-99 0 -179 39 -239 116s-90 181 -90 310c0 167 42 315 125 444c84 130 186 195 306 195c55 7 137 -3 247 -30z
M537 714c0 -56 12 -104 37 -143s58 -58 100 -58c40 0 75 15 106 46s59 84 83 161c25 77 39 149 43 215c0 107 -50 180 -131 180c-76 0 -136 -46 -179 -139c-43 -92 -62 -179 -59 -262z" />
    <glyph glyph-name="A" unicode="A" horiz-adv-x="1040" 
d="M256 1618h508l288 -1618l-414 -1l-21 291l-189 -1l-25 -291l-415 2zM444 578h144c-21 183 -43 410 -64 679c-43 -309 -69 -536 -80 -679z" />
    <glyph glyph-name="B" unicode="B" horiz-adv-x="1131" 
d="M84 0v1619h420c133 0 233 -10 301 -31c69 -21 124 -63 166 -126s63 -164 63 -304c0 -95 -15 -161 -45 -198c-29 -37 -88 -66 -175 -86c97 -22 163 -59 198 -110s52 -129 52 -234v-150c0 -109 -13 -190 -38 -243s-64 -89 -119 -108s-167 -29 -336 -29h-487zM505 1342v-360
c18 1 32 1 42 1c61 0 98 10 109 30c11 21 17 79 17 175c0 51 -10 86 -29 106c-19 21 -37 34 -52 39s-44 8 -87 9zM505 730v-453c59 2 102 11 128 28c27 17 40 58 40 123v151c0 69 -12 111 -37 126s-68 23 -131 25z" />
    <glyph glyph-name="C" unicode="C" horiz-adv-x="1134" 
d="M1068 1171l4 -155h-367c-5 191 -21 299 -47 324c-26 26 -54 39 -85 39c-35 0 -63 -21 -84 -64c-21 -42 -32 -142 -32 -300v-367c0 -200 11 -318 32 -354s48 -54 81 -54c31 0 60 14 87 42c27 29 42 151 47 366l368 2c-3 -211 -17 -351 -41 -421
c-23 -70 -76 -131 -157 -184s-180 -79 -299 -79c-123 0 -225 22 -305 67s-133 106 -159 185s-39 198 -39 357v473c0 117 4 204 12 262c8 59 32 115 71 169c80 108 225 174 408 174c124 0 226 -24 307 -72s133 -105 156 -171c24 -66 38 -146 42 -239z" />
    <glyph glyph-name="D" unicode="D" horiz-adv-x="1132" 
d="M84 0v1619l409 -1c189 0 328 -36 416 -109c89 -73 139 -204 150 -395v-633c-11 -195 -63 -324 -155 -387s-188 -94 -289 -94h-531zM505 1342v-1065c47 0 86 14 117 43s48 146 51 349v345c-3 157 -20 251 -52 282c-31 31 -70 46 -116 46z" />
    <glyph glyph-name="E" unicode="E" horiz-adv-x="851" 
d="M84 0v1619l742 1l2 -325h-323v-307l231 -1v-307h-231v-356l329 1v-324z" />
    <glyph glyph-name="F" unicode="F" horiz-adv-x="815" 
d="M84 0v1619h713v-324h-292v-307h211v-308h-211v-680h-421z" />
    <glyph glyph-name="G" unicode="G" horiz-adv-x="1129" 
d="M1050 1093v-70l-374 2c-6 190 -17 297 -33 320c-15 23 -38 35 -68 35c-36 -1 -63 -11 -82 -32c-18 -21 -28 -117 -31 -289v-437c3 -210 13 -326 31 -349c19 -22 47 -33 85 -32c46 0 72 37 79 110c7 74 -13 247 -59 518h452v-869h-286c-97 -23 -190 -34 -281 -34
c-71 0 -137 17 -199 51c-61 35 -108 77 -140 128s-52 104 -60 159c-8 56 -12 140 -12 251v481c0 155 8 267 25 337s64 134 143 192c79 59 182 88 307 88c123 0 226 -25 307 -76s134 -111 159 -181c25 -69 37 -170 37 -303z" />
    <glyph glyph-name="H" unicode="H" horiz-adv-x="1137" 
d="M647 1620l405 -1v-1619l-405 1v680h-153v-680l-410 -1v1619l410 1v-579h153v579z" />
    <glyph glyph-name="I" unicode="I" horiz-adv-x="590" 
d="M84 1620h421v-1620h-421v1620z" />
    <glyph glyph-name="J" unicode="J" horiz-adv-x="678" 
d="M178 1619h421v-1082c0 -162 -2 -266 -5 -313c-3 -46 -19 -88 -46 -125s-63 -63 -110 -78c-46 -14 -116 -21 -209 -21h-211c107 48 161 188 161 421z" />
    <glyph glyph-name="K" unicode="K" horiz-adv-x="1099" 
d="M692 1619h395l-241 -731l264 -888h-435l-171 599l1 -599h-421v1619h421l-1 -558z" />
    <glyph glyph-name="L" unicode="L" horiz-adv-x="779" 
d="M84 1619h421l-1 -1272h256l1 -347h-677v1619z" />
    <glyph glyph-name="M" unicode="M" horiz-adv-x="1468" 
d="M859 1618l524 1v-1619h-368l1 991l-148 -991h-261l-155 991v-991h-368v1619l519 -1l136 -693z" />
    <glyph glyph-name="N" unicode="N" horiz-adv-x="1109" 
d="M661 1619h363v-1619h-334l-242 707v-707h-364v1619l332 1l245 -693v692z" />
    <glyph glyph-name="O" unicode="O" horiz-adv-x="1119" 
d="M1046 948v-277c0 -163 -4 -278 -12 -346c-7 -67 -31 -129 -72 -185c-80 -112 -220 -174 -403 -174c-173 0 -316 57 -400 170c-42 57 -67 118 -75 185s-12 183 -12 350v277c0 163 4 278 11 345c8 68 32 130 72 186c81 112 221 174 404 174c173 0 316 -57 400 -170
c42 -57 67 -118 75 -185s12 -183 12 -350zM644 591v429c0 197 -7 306 -22 327s-35 32 -61 32c-22 0 -43 -9 -62 -27c-19 -17 -28 -128 -28 -333v-441c0 -183 7 -285 22 -306s37 -32 65 -32c29 0 50 12 64 37c15 25 22 130 22 314z" />
    <glyph glyph-name="P" unicode="P" horiz-adv-x="1028" 
d="M84 0v1619h424c115 0 200 -9 257 -26s101 -43 132 -77s55 -76 70 -125c16 -49 24 -124 24 -225v-141c-3 -100 -18 -174 -46 -223c-27 -48 -66 -85 -115 -111s-120 -39 -212 -39h-113v-652h-421zM505 1342v-412c12 -1 22 -1 31 -1c39 0 69 10 90 29s32 59 32 119v133
c0 55 -12 91 -36 107c-23 17 -62 25 -117 25z" />
    <glyph glyph-name="Q" unicode="Q" horiz-adv-x="1119" 
d="M900 120l147 -54v-262l-560 196c-95 3 -177 28 -246 75s-114 107 -136 180s-33 183 -33 328v501c0 110 6 194 19 251c13 58 40 112 81 163c81 103 214 155 370 155c94 0 178 -16 251 -48c74 -32 129 -73 165 -122c37 -49 60 -101 71 -154s17 -131 17 -236v-526
c0 -144 -7 -242 -21 -293s-56 -103 -125 -154zM643 658l-1 379c1 185 -5 289 -20 310s-35 32 -61 32c-22 0 -43 -9 -62 -26s-29 -123 -30 -316l1 -391c1 -227 8 -352 23 -374c15 -21 37 -32 65 -32c29 0 50 12 64 37c15 25 22 152 21 381z" />
    <glyph glyph-name="R" unicode="R" horiz-adv-x="1103" 
d="M84 0v1619h298c199 0 333 -9 404 -27s128 -56 171 -115s66 -159 67 -300c0 -111 -16 -190 -47 -237s-79 -81 -143 -102c83 -21 132 -47 147 -80c15 -32 25 -63 32 -92s11 -108 11 -239v-427h-368v538c-6 78 -18 128 -37 150c-18 23 -56 37 -114 42v-730h-421zM505 1342
v-360c47 0 84 6 111 19s40 56 40 127v89c0 51 -13 85 -39 101s-63 24 -112 24z" />
    <glyph glyph-name="S" unicode="S" horiz-adv-x="1059" 
d="M976 1193v-310l-391 246v120c0 56 -5 92 -15 107s-27 23 -50 23c-51 0 -77 -41 -77 -125c0 -54 7 -95 22 -122c14 -27 54 -60 119 -99c187 -111 305 -203 354 -274s73 -186 73 -345c0 -115 -14 -200 -41 -255s-79 -101 -156 -138s-167 -55 -270 -55
c-113 0 -209 21 -289 64c-79 43 -131 97 -156 163s-37 160 -37 281v364l391 -258v-197c0 -61 5 -100 16 -117s31 -26 59 -26c56 0 83 44 83 131c0 95 -13 158 -39 187c-27 29 -92 78 -197 147s-174 120 -208 151c-68 63 -118 170 -118 342c0 124 16 215 47 272
c64 115 210 183 410 183c109 0 202 -18 279 -53s128 -80 153 -134c25 -53 38 -144 38 -273z" />
    <glyph glyph-name="T" unicode="T" horiz-adv-x="944" 
d="M0 1620h944l5 -327l-267 2v-1295h-421v1295l-261 -2v327z" />
    <glyph glyph-name="U" unicode="U" horiz-adv-x="1120" 
d="M620 1619h421v-1082c0 -123 -4 -209 -12 -259c-8 -49 -32 -100 -71 -153c-79 -104 -208 -159 -383 -159c-97 0 -182 16 -256 48s-129 74 -166 125s-58 105 -65 162s-10 177 -10 360v958h421l1 -1148c-4 -68 -2 -113 7 -135s25 -33 48 -33c27 0 44 11 51 32
c8 22 12 73 12 154z" />
    <glyph glyph-name="V" unicode="V" horiz-adv-x="1072" 
d="M640 1619h444l-249 -1619h-578l-269 1619h444l114 -1030z" />
    <glyph glyph-name="W" unicode="W" horiz-adv-x="1668" 
d="M1259 1619h409l-187 -1619h-526l-121 846l-123 -846h-523l-188 1619h409l65 -1024l138 1024h438l157 -1021z" />
    <glyph glyph-name="X" unicode="X" horiz-adv-x="988" 
d="M584 1619h353l-195 -714l270 -905h-390l-129 402l-83 -402h-410l225 902l-225 717h407l86 -339z" />
    <glyph glyph-name="Y" unicode="Y" horiz-adv-x="969" 
d="M594 1619h387l-307 -1033v-586h-390v586l-296 1033h387l101 -568z" />
    <glyph glyph-name="Z" unicode="Z" horiz-adv-x="813" 
d="M50 1619h738l-1 -306l-313 -989h314v-324h-776v322l347 991h-310z" />
    <glyph glyph-name="bracketleft" unicode="[" horiz-adv-x="578" 
d="M84 1619h457v-294h-91v-1028h91v-297h-457v1619z" />
    <glyph glyph-name="backslash" unicode="\" horiz-adv-x="810" 
d="M447 -32l-372 1681h303l374 -1681h-305z" />
    <glyph glyph-name="bracketright" unicode="]" horiz-adv-x="578" 
d="M493 0h-457l1 301h91v1024h-91l-1 294h457v-1619z" />
    <glyph glyph-name="asciicircum" unicode="^" horiz-adv-x="990" 
d="M298 820h-286l376 799h223l366 -799h-284l-199 442z" />
    <glyph glyph-name="underscore" unicode="_" horiz-adv-x="1131" 
d="M-12 -256v126h1155v-126h-1155z" />
    <glyph glyph-name="grave" unicode="`" horiz-adv-x="683" 
d="M236 1501l-236 271h356l83 -271h-203z" />
    <glyph glyph-name="a" unicode="a" horiz-adv-x="1032" 
d="M423 950v-102l-369 -171v225c0 103 12 182 35 237c24 56 72 105 143 148s164 64 278 64c137 0 240 -24 309 -73c69 -48 111 -107 125 -178c14 -70 21 -215 21 -434v-666h-393c-25 31 -56 37 -94 17s-84 -30 -138 -30c-71 0 -136 18 -196 54s-90 121 -90 255v109
c0 99 16 167 47 203s109 78 233 126c133 52 204 87 213 105s14 55 14 110c0 69 -5 114 -16 135c-10 21 -27 32 -51 32c-27 0 -46 -8 -55 -24c-9 -15 -15 -63 -16 -142zM561 358v233c-71 -22 -112 -49 -123 -81c-10 -32 -15 -78 -15 -138c0 -69 6 -113 18 -132
c13 -19 32 -29 59 -29c25 0 42 8 49 23c8 16 12 57 12 124z" />
    <glyph glyph-name="b" unicode="b" horiz-adv-x="1057" 
d="M72 1619h404v-324c67 31 149 56 245 56c65 -8 118 -25 159 -51c42 -25 71 -62 87 -110c16 -47 28 -121 36 -222v-598c0 -97 -16 -184 -49 -260c-32 -76 -110 -121 -233 -134c-47 0 -97 11 -149 34c-51 23 -92 19 -122 -10h-378v1619zM624 569v220c-3 176 -13 274 -28 295
s-36 32 -61 32s-41 -9 -48 -28c-7 -18 -11 -64 -11 -138v-572c0 -71 4 -117 12 -137c9 -20 25 -30 50 -30s45 10 59 31c15 21 24 130 27 327z" />
    <glyph glyph-name="c" unicode="c" horiz-adv-x="1013" 
d="M961 868l-337 1l-1 131c-7 77 -40 116 -100 116c-53 -9 -75 -81 -67 -216v-402c-8 -187 18 -282 79 -287c55 -5 84 54 88 177v158h342c-1 -106 -5 -186 -12 -239s-29 -107 -67 -163c-75 -111 -193 -168 -372 -168c-114 0 -204 19 -271 58s-114 94 -142 164
c-27 71 -41 171 -41 300v377c0 113 11 198 34 255s71 108 145 153s164 68 270 68c105 0 195 -22 270 -67s124 -101 149 -169s36 -150 33 -247z" />
    <glyph glyph-name="d" unicode="d" horiz-adv-x="1064" 
d="M587 1619h404v-1619h-404c-23 37 -59 45 -108 23c-49 -21 -97 -32 -144 -32c-106 -2 -178 33 -217 105c-39 73 -58 158 -58 256v621c0 102 21 187 64 254c43 68 113 109 212 124c50 0 96 -9 137 -27l113 -48zM587 379v614c0 97 -13 123 -62 123c-24 0 -45 -7 -62 -22
s-27 -98 -30 -251v-318c3 -175 13 -271 30 -288s36 -26 59 -26c26 0 43 9 52 28s13 66 13 140z" />
    <glyph glyph-name="e" unicode="e" 
d="M986 745v-41l-523 -182l1 -169c0 -60 4 -99 13 -116s25 -26 50 -26c31 0 54 11 71 34s25 68 25 134l1 109l362 116l-1 -166c1 -70 -3 -127 -14 -171c-10 -44 -34 -91 -72 -141c-76 -100 -188 -150 -364 -150c-171 0 -306 53 -379 138c-36 43 -61 91 -75 142
c-14 52 -21 127 -21 226v387c0 116 16 207 47 274s83 119 154 154c71 36 153 54 246 54c113 0 207 -22 280 -65c74 -43 126 -100 155 -171c30 -71 45 -194 44 -370zM465 774l135 43l1 136c0 69 -7 113 -21 133c-13 20 -31 30 -54 30c-28 0 -45 -9 -52 -26s-10 -62 -10 -137z
" />
    <glyph glyph-name="f" unicode="f" horiz-adv-x="592" 
d="M439 1619h148l3 -294c-39 1 -67 -2 -82 -10c-15 -7 -23 -27 -25 -58v-42l104 -2v-252h-96v-961h-404l1 962v252c-1 127 5 207 17 240c13 33 31 61 54 84c24 23 54 43 90 58c37 15 100 23 190 23z" />
    <glyph glyph-name="g" unicode="g" horiz-adv-x="1054" 
d="M577 1328l405 -1v-1022c0 -138 -3 -227 -10 -268c-6 -40 -28 -82 -67 -127c-77 -91 -213 -139 -422 -139c-129 0 -232 27 -309 80s-117 139 -119 259c117 -65 217 -99 299 -101c126 5 200 47 223 124l7 113c-69 -63 -146 -95 -230 -95c-73 0 -133 15 -180 44
s-79 68 -96 115c-17 48 -26 116 -26 204v482c0 252 90 355 275 355c101 0 185 -41 250 -124v101zM577 564v411c0 61 -4 99 -11 116s-22 25 -46 25c-23 0 -44 -10 -61 -29s-26 -57 -26 -113v-446c0 -59 7 -98 22 -115s35 -26 58 -26c27 0 44 11 52 32s12 70 12 145z" />
    <glyph glyph-name="h" unicode="h" horiz-adv-x="1073" 
d="M72 1619h404l-1 -329c35 32 72 51 112 58c41 7 86 10 135 10c68 -5 127 -25 176 -61c50 -36 80 -78 91 -125s17 -132 17 -257v-915h-404v934c0 77 -4 127 -12 149c-7 22 -24 33 -51 33c-25 0 -41 -11 -50 -34s-13 -68 -13 -135v-947h-404v1619z" />
    <glyph glyph-name="i" unicode="i" horiz-adv-x="561" 
d="M72 1619h416l-2 -294h-416zM70 1244h416l2 -1244h-416z" />
    <glyph glyph-name="j" unicode="j" horiz-adv-x="573" 
d="M84 1619h416l-1 -294h-416zM83 1244h416l1 -967c0 -123 -3 -207 -8 -251c-5 -43 -20 -81 -46 -114c-25 -33 -60 -58 -103 -74s-107 -24 -193 -24l-211 1c95 35 142 203 142 506z" />
    <glyph glyph-name="k" unicode="k" horiz-adv-x="979" 
d="M602 1327l357 1l-182 -546l214 -782h-389l-134 577v-578l-396 1v1619l396 -1v-680z" />
    <glyph glyph-name="l" unicode="l" horiz-adv-x="561" 
d="M81 1619h407v-1619h-407v1619z" />
    <glyph glyph-name="m" unicode="m" horiz-adv-x="1579" 
d="M72 1327l397 1l3 -89c57 65 141 112 252 112c108 0 196 -37 263 -112c63 65 145 112 249 112c69 0 125 -17 170 -50s74 -74 87 -123c13 -48 19 -126 19 -235v-943h-392l1 828c0 113 -4 183 -12 210c-7 27 -25 41 -53 41c-29 0 -47 -13 -56 -40c-8 -27 -12 -97 -12 -211
l-1 -828h-392l1 806c0 130 -3 208 -10 234c-6 26 -23 39 -52 39c-18 0 -33 -7 -46 -21c-13 -13 -20 -30 -21 -50c-1 -19 -2 -61 -2 -125l-1 -883h-392v1327z" />
    <glyph glyph-name="n" unicode="n" horiz-adv-x="1071" 
d="M72 1327l407 1l2 -75c56 52 138 98 249 98c69 0 126 -16 170 -49s72 -74 85 -124c13 -49 19 -132 19 -248v-930h-404l-1 886c0 91 -3 147 -9 167s-23 30 -50 30c-29 0 -47 -12 -54 -35s-11 -84 -11 -184l1 -864h-404v1327z" />
    <glyph glyph-name="o" unicode="o" 
d="M986 861v-325c0 -119 -6 -207 -18 -263c-12 -55 -38 -107 -77 -156c-79 -96 -204 -141 -364 -141c-179 0 -303 39 -372 118c-34 40 -58 88 -73 144c-15 57 -22 141 -22 254v340c0 123 13 220 40 289c53 139 194 230 410 230c181 0 313 -59 384 -146
c35 -43 59 -88 72 -134s20 -116 20 -210zM595 353v612c0 68 -6 110 -18 126c-11 17 -29 25 -53 25s-42 -9 -54 -27c-11 -17 -17 -60 -17 -128v-599c0 -63 6 -104 17 -123c12 -19 30 -28 53 -28c24 0 42 9 54 28s18 57 18 114z" />
    <glyph glyph-name="p" unicode="p" horiz-adv-x="1063" 
d="M72 1327h404c10 -36 43 -43 100 -20s112 35 163 35c175 -10 263 -137 263 -382v-559c-1 -283 -91 -425 -270 -425c-51 -3 -98 5 -139 26s-79 46 -114 73l-3 -264h-404v1516zM609 526v269c-3 131 -9 211 -18 241c-9 31 -27 46 -54 46s-44 -10 -52 -30
c-7 -20 -11 -68 -11 -145v-489c0 -80 4 -130 12 -150s25 -30 52 -30c26 0 44 16 55 48c11 33 16 113 16 240z" />
    <glyph glyph-name="q" unicode="q" horiz-adv-x="1061" 
d="M584 1328l404 -1v-1516h-404v276c-39 -57 -76 -90 -109 -98c-33 -9 -73 -13 -122 -13c-194 10 -292 151 -293 423v585c1 227 90 346 266 357c51 0 104 -12 159 -37c56 -25 89 -17 99 24zM584 369v597c0 59 -5 98 -14 119s-25 31 -48 31s-40 -9 -53 -27
c-13 -17 -20 -102 -21 -253v-324c1 -162 6 -253 14 -272s29 -28 63 -29c23 0 39 10 47 29c8 20 12 63 12 129z" />
    <glyph glyph-name="r" unicode="r" horiz-adv-x="733" 
d="M72 1327l404 1c-4 -67 76 -59 239 23v-394c-74 0 -128 -10 -163 -30s-56 -48 -64 -84c-8 -35 -12 -117 -12 -246v-597h-404v1327z" />
    <glyph glyph-name="s" unicode="s" horiz-adv-x="964" 
d="M897 980v-258l-347 177v72c3 59 -1 97 -14 116c-12 19 -32 29 -60 29c-45 0 -68 -30 -68 -90c0 -41 3 -71 8 -90c6 -19 23 -39 51 -62c29 -23 87 -56 175 -99c117 -57 194 -111 231 -162s55 -124 55 -221c0 -108 -14 -190 -42 -245c-56 -109 -193 -171 -378 -171
c-103 0 -191 16 -264 48s-123 75 -150 130s-41 137 -41 248l2 237l356 -189v-68c1 -114 23 -171 67 -171c29 0 49 7 60 21c11 15 17 45 17 91c0 63 -7 103 -22 119s-94 63 -235 142c-119 67 -191 127 -217 181c-26 55 -39 119 -39 194c0 106 14 184 42 234
c28 51 75 90 142 117s145 41 234 41c176 0 301 -49 366 -122c33 -37 53 -71 60 -102s11 -80 11 -147z" />
    <glyph glyph-name="t" unicode="t" horiz-adv-x="624" 
d="M93 1504h405v-176h109v-243h-109l-1 -620c1 -258 43 -413 127 -465h-163c-92 0 -158 4 -197 11c-39 8 -74 26 -104 53c-30 28 -49 61 -56 100s-11 126 -12 263z" />
    <glyph glyph-name="u" unicode="u" horiz-adv-x="1070" 
d="M593 1327h404v-1327h-404c-16 37 -47 45 -94 24c-46 -20 -94 -30 -144 -30c-133 7 -210 51 -249 122c-19 35 -30 68 -34 99s-6 103 -6 217v895h404v-865c0 -103 3 -165 9 -184c7 -19 24 -29 52 -29c30 0 48 10 53 30c6 20 9 84 9 193v855z" />
    <glyph glyph-name="v" unicode="v" horiz-adv-x="895" 
d="M546 1327h361l-224 -1327h-463l-232 1327h361l113 -905z" />
    <glyph glyph-name="w" unicode="w" horiz-adv-x="1371" 
d="M1029 1327h348l-202 -1327h-369l-113 592l-130 -592h-366l-203 1327h348l77 -761l101 761h335l101 -761z" />
    <glyph glyph-name="x" unicode="x" horiz-adv-x="888" 
d="M513 1327h359l-147 -634l181 -693h-393l-88 451l-87 -451h-338l165 693l-165 634h338l86 -452z" />
    <glyph glyph-name="y" unicode="y" horiz-adv-x="918" 
d="M551 1327h367c-127 -791 -196 -1215 -209 -1270c-12 -55 -32 -101 -61 -137s-61 -63 -96 -80s-109 -26 -221 -26h-245c85 63 141 123 166 180s21 153 -12 288l-252 1045h367l130 -828z" />
    <glyph glyph-name="z" unicode="z" horiz-adv-x="719" 
d="M43 1327h658v-294l-297 -733h298l-1 -300h-689v301l305 747h-274v279z" />
    <glyph glyph-name="braceleft" unicode="{" horiz-adv-x="757" 
d="M0 537v240c73 1 127 22 164 64c37 43 61 137 73 282c12 116 22 201 30 255c9 55 29 100 61 137s73 63 124 79c51 17 122 25 215 25h53v-239c-97 0 -155 -10 -174 -30s-29 -59 -30 -117c-4 -160 -9 -264 -16 -312c-6 -48 -21 -94 -44 -138c-23 -43 -65 -85 -128 -125
c59 -36 102 -79 129 -129s43 -122 48 -216l15 -291c6 -28 20 -49 43 -63c23 -15 75 -22 156 -22v-240h-52c-107 0 -189 12 -247 37c-58 24 -100 64 -126 119s-44 143 -54 262c-14 139 -26 228 -35 266s-27 73 -54 104c-27 32 -77 49 -151 52z" />
    <glyph glyph-name="bar" unicode="|" horiz-adv-x="554" 
d="M169 -265l1 1911h217l-1 -1911h-217z" />
    <glyph glyph-name="braceright" unicode="}" horiz-adv-x="757" 
d="M756 777v-240c-73 -1 -127 -22 -164 -65s-62 -138 -75 -287c-11 -111 -20 -193 -28 -247c-8 -55 -28 -100 -60 -137s-73 -63 -124 -79c-51 -17 -122 -25 -215 -25h-53v240c93 0 149 10 170 29s33 59 34 118c4 171 10 280 18 328c17 97 61 183 169 246
c-57 37 -97 74 -120 110s-38 75 -46 117c-8 43 -14 121 -18 236s-9 181 -14 198s-18 31 -39 43c-20 12 -72 18 -155 18v239h53c107 0 189 -12 247 -37c58 -24 100 -64 126 -119s43 -146 52 -271c15 -140 28 -228 38 -265c11 -37 29 -70 55 -101c27 -30 76 -46 149 -49z" />
    <glyph glyph-name="asciitilde" unicode="~" horiz-adv-x="1075" 
d="M1018 1062v-299c-105 -87 -200 -131 -284 -131c-57 0 -143 27 -256 82c-65 31 -112 47 -142 47c-73 0 -165 -54 -278 -163l-1 302c98 85 194 128 289 128c57 0 134 -23 232 -70c79 -38 136 -57 169 -57c31 0 63 9 98 26c35 18 92 63 173 135z" />
    <glyph glyph-name="Udieresis" unicode="&#xdc;" horiz-adv-x="1120" 
d="M620 1619h421v-1082c0 -123 -4 -209 -12 -259c-8 -49 -32 -100 -71 -153c-79 -104 -208 -159 -383 -159c-97 0 -182 16 -256 48s-129 74 -166 125s-58 105 -65 162s-10 177 -10 360v958h421l1 -1148c-4 -68 -2 -113 7 -135s25 -33 48 -33c27 0 44 11 51 32
c8 22 12 73 12 154zM211 1930h276v-260h-276v260zM634 1930h275v-260h-275v260z" />
    <glyph glyph-name="aacute" unicode="&#xe1;" horiz-adv-x="1032" 
d="M423 950v-102l-369 -171v225c0 103 12 182 35 237c24 56 72 105 143 148s164 64 278 64c137 0 240 -24 309 -73c69 -48 111 -107 125 -178c14 -70 21 -215 21 -434v-666h-393c-25 31 -56 37 -94 17s-84 -30 -138 -30c-71 0 -136 18 -196 54s-90 121 -90 255v109
c0 99 16 167 47 203s109 78 233 126c133 52 204 87 213 105s14 55 14 110c0 69 -5 114 -16 135c-10 21 -27 32 -51 32c-27 0 -46 -8 -55 -24c-9 -15 -15 -63 -16 -142zM561 358v233c-71 -22 -112 -49 -123 -81c-10 -32 -15 -78 -15 -138c0 -69 6 -113 18 -132
c13 -19 32 -29 59 -29c25 0 42 8 49 23c8 16 12 57 12 124zM501 1691h356l-256 -271h-203z" />
    <glyph glyph-name="agrave" unicode="&#xe0;" horiz-adv-x="1032" 
d="M423 950v-102l-369 -171v225c0 103 12 182 35 237c24 56 72 105 143 148s164 64 278 64c137 0 240 -24 309 -73c69 -48 111 -107 125 -178c14 -70 21 -215 21 -434v-666h-393c-25 31 -56 37 -94 17s-84 -30 -138 -30c-71 0 -136 18 -196 54s-90 121 -90 255v109
c0 99 16 167 47 203s109 78 233 126c133 52 204 87 213 105s14 55 14 110c0 69 -5 114 -16 135c-10 21 -27 32 -51 32c-27 0 -46 -8 -55 -24c-9 -15 -15 -63 -16 -142zM561 358v233c-71 -22 -112 -49 -123 -81c-10 -32 -15 -78 -15 -138c0 -69 6 -113 18 -132
c13 -19 32 -29 59 -29c25 0 42 8 49 23c8 16 12 57 12 124zM410 1420l-236 271h356l83 -271h-203z" />
    <glyph glyph-name="acircumflex" unicode="&#xe2;" horiz-adv-x="1032" 
d="M423 950v-102l-369 -171v225c0 103 12 182 35 237c24 56 72 105 143 148s164 64 278 64c137 0 240 -24 309 -73c69 -48 111 -107 125 -178c14 -70 21 -215 21 -434v-666h-393c-25 31 -56 37 -94 17s-84 -30 -138 -30c-71 0 -136 18 -196 54s-90 121 -90 255v109
c0 99 16 167 47 203s109 78 233 126c133 52 204 87 213 105s14 55 14 110c0 69 -5 114 -16 135c-10 21 -27 32 -51 32c-27 0 -46 -8 -55 -24c-9 -15 -15 -63 -16 -142zM561 358v233c-71 -22 -112 -49 -123 -81c-10 -32 -15 -78 -15 -138c0 -69 6 -113 18 -132
c13 -19 32 -29 59 -29c25 0 42 8 49 23c8 16 12 57 12 124zM635 1420l-111 131l-118 -131h-280l257 282h282l241 -282h-271z" />
    <glyph glyph-name="adieresis" unicode="&#xe4;" horiz-adv-x="1032" 
d="M423 950v-102l-369 -171v225c0 103 12 182 35 237c24 56 72 105 143 148s164 64 278 64c137 0 240 -24 309 -73c69 -48 111 -107 125 -178c14 -70 21 -215 21 -434v-666h-393c-25 31 -56 37 -94 17s-84 -30 -138 -30c-71 0 -136 18 -196 54s-90 121 -90 255v109
c0 99 16 167 47 203s109 78 233 126c133 52 204 87 213 105s14 55 14 110c0 69 -5 114 -16 135c-10 21 -27 32 -51 32c-27 0 -46 -8 -55 -24c-9 -15 -15 -63 -16 -142zM561 358v233c-71 -22 -112 -49 -123 -81c-10 -32 -15 -78 -15 -138c0 -69 6 -113 18 -132
c13 -19 32 -29 59 -29c25 0 42 8 49 23c8 16 12 57 12 124zM167 1680h276v-260h-276v260zM590 1680h275v-260h-275v260z" />
    <glyph glyph-name="atilde" unicode="&#xe3;" horiz-adv-x="1032" 
d="M423 950v-102l-369 -171v225c0 103 12 182 35 237c24 56 72 105 143 148s164 64 278 64c137 0 240 -24 309 -73c69 -48 111 -107 125 -178c14 -70 21 -215 21 -434v-666h-393c-25 31 -56 37 -94 17s-84 -30 -138 -30c-71 0 -136 18 -196 54s-90 121 -90 255v109
c0 99 16 167 47 203s109 78 233 126c133 52 204 87 213 105s14 55 14 110c0 69 -5 114 -16 135c-10 21 -27 32 -51 32c-27 0 -46 -8 -55 -24c-9 -15 -15 -63 -16 -142zM561 358v233c-71 -22 -112 -49 -123 -81c-10 -32 -15 -78 -15 -138c0 -69 6 -113 18 -132
c13 -19 32 -29 59 -29c25 0 42 8 49 23c8 16 12 57 12 124zM777 1725l183 -97c-47 -96 -92 -157 -137 -184s-84 -40 -118 -40c-47 0 -98 11 -153 33l-74 29c-47 19 -83 29 -106 29c-49 0 -90 -33 -122 -100l-176 118c87 137 176 206 268 206c48 0 100 -11 157 -32l62 -23
c52 -19 87 -29 106 -29c55 0 92 30 110 90z" />
    <glyph glyph-name="aring" unicode="&#xe5;" horiz-adv-x="1032" 
d="M423 950v-102l-369 -171v225c0 103 12 182 35 237c24 56 72 105 143 148s164 64 278 64c137 0 240 -24 309 -73c69 -48 111 -107 125 -178c14 -70 21 -215 21 -434v-666h-393c-25 31 -56 37 -94 17s-84 -30 -138 -30c-71 0 -136 18 -196 54s-90 121 -90 255v109
c0 99 16 167 47 203s109 78 233 126c133 52 204 87 213 105s14 55 14 110c0 69 -5 114 -16 135c-10 21 -27 32 -51 32c-27 0 -46 -8 -55 -24c-9 -15 -15 -63 -16 -142zM561 358v233c-71 -22 -112 -49 -123 -81c-10 -32 -15 -78 -15 -138c0 -69 6 -113 18 -132
c13 -19 32 -29 59 -29c25 0 42 8 49 23c8 16 12 57 12 124zM516 1841c56 0 105 -20 147 -61c42 -40 63 -90 63 -150c0 -58 -21 -108 -62 -149s-91 -61 -148 -61c-59 0 -109 20 -150 61s-61 91 -61 149s21 108 62 149s91 62 149 62zM514 1709c-44 0 -82 -36 -82 -83
c0 -45 38 -82 82 -82c45 0 83 37 83 82c0 47 -38 83 -83 83z" />
    <glyph glyph-name="ccedilla" unicode="&#xe7;" horiz-adv-x="1013" 
d="M546 -23v-29c35 0 67 -12 98 -35s46 -56 46 -97c0 -51 -21 -94 -62 -131s-91 -56 -148 -56c-104 0 -170 53 -199 158h148c9 -28 26 -42 50 -42c40 0 59 20 59 60c0 44 -27 66 -83 66h-26v110c-101 12 -176 38 -226 79c-49 41 -86 93 -109 156s-34 157 -34 282v377
c0 113 11 198 34 255s71 108 145 153s164 68 270 68c105 0 195 -22 270 -67s124 -101 149 -169s37 -164 37 -289h-381v153c0 107 -14 137 -61 137c-23 0 -39 -8 -47 -25s-12 -54 -12 -112v-626c0 -95 24 -142 71 -142c27 0 46 12 55 37c10 25 15 71 15 140v158h360
c-1 -99 -4 -174 -10 -227c-5 -52 -25 -105 -59 -160c-68 -109 -171 -171 -350 -182z" />
    <glyph glyph-name="eacute" unicode="&#xe9;" 
d="M986 745v-41l-523 -182l1 -169c0 -60 4 -99 13 -116s25 -26 50 -26c31 0 54 11 71 34s25 68 25 134l1 109l362 116l-1 -166c1 -70 -3 -127 -14 -171c-10 -44 -34 -91 -72 -141c-76 -100 -188 -150 -364 -150c-171 0 -306 53 -379 138c-36 43 -61 91 -75 142
c-14 52 -21 127 -21 226v387c0 116 16 207 47 274s83 119 154 154c71 36 153 54 246 54c113 0 207 -22 280 -65c74 -43 126 -100 155 -171c30 -71 45 -194 44 -370zM465 774l135 43l1 136c0 69 -7 113 -21 133c-13 20 -31 30 -54 30c-28 0 -45 -9 -52 -26s-10 -62 -10 -137z
M509 1691h356l-256 -271h-203z" />
    <glyph glyph-name="egrave" unicode="&#xe8;" 
d="M986 745v-41l-523 -182l1 -169c0 -60 4 -99 13 -116s25 -26 50 -26c31 0 54 11 71 34s25 68 25 134l1 109l362 116l-1 -166c1 -70 -3 -127 -14 -171c-10 -44 -34 -91 -72 -141c-76 -100 -188 -150 -364 -150c-171 0 -306 53 -379 138c-36 43 -61 91 -75 142
c-14 52 -21 127 -21 226v387c0 116 16 207 47 274s83 119 154 154c71 36 153 54 246 54c113 0 207 -22 280 -65c74 -43 126 -100 155 -171c30 -71 45 -194 44 -370zM465 774l135 43l1 136c0 69 -7 113 -21 133c-13 20 -31 30 -54 30c-28 0 -45 -9 -52 -26s-10 -62 -10 -137z
M418 1420l-236 271h356l83 -271h-203z" />
    <glyph glyph-name="ecircumflex" unicode="&#xea;" 
d="M986 745v-41l-523 -182l1 -169c0 -60 4 -99 13 -116s25 -26 50 -26c31 0 54 11 71 34s25 68 25 134l1 109l362 116l-1 -166c1 -70 -3 -127 -14 -171c-10 -44 -34 -91 -72 -141c-76 -100 -188 -150 -364 -150c-171 0 -306 53 -379 138c-36 43 -61 91 -75 142
c-14 52 -21 127 -21 226v387c0 116 16 207 47 274s83 119 154 154c71 36 153 54 246 54c113 0 207 -22 280 -65c74 -43 126 -100 155 -171c30 -71 45 -194 44 -370zM465 774l135 43l1 136c0 69 -7 113 -21 133c-13 20 -31 30 -54 30c-28 0 -45 -9 -52 -26s-10 -62 -10 -137z
M642 1420l-111 131l-118 -131h-280l257 282h282l241 -282h-271z" />
    <glyph glyph-name="edieresis" unicode="&#xeb;" 
d="M986 745v-41l-523 -182l1 -169c0 -60 4 -99 13 -116s25 -26 50 -26c31 0 54 11 71 34s25 68 25 134l1 109l362 116l-1 -166c1 -70 -3 -127 -14 -171c-10 -44 -34 -91 -72 -141c-76 -100 -188 -150 -364 -150c-171 0 -306 53 -379 138c-36 43 -61 91 -75 142
c-14 52 -21 127 -21 226v387c0 116 16 207 47 274s83 119 154 154c71 36 153 54 246 54c113 0 207 -22 280 -65c74 -43 126 -100 155 -171c30 -71 45 -194 44 -370zM465 774l135 43l1 136c0 69 -7 113 -21 133c-13 20 -31 30 -54 30c-28 0 -45 -9 -52 -26s-10 -62 -10 -137z
M174 1680h276v-260h-276v260zM597 1680h275v-260h-275v260z" />
    <glyph glyph-name="iacute" unicode="&#xed;" horiz-adv-x="561" 
d="M72 1327h416v-1327h-416v1327zM273 1691h356l-256 -271h-203z" />
    <glyph glyph-name="igrave" unicode="&#xec;" horiz-adv-x="561" 
d="M72 1327h416v-1327h-416v1327zM182 1420l-236 271h356l83 -271h-203z" />
    <glyph glyph-name="icircumflex" unicode="&#xee;" horiz-adv-x="561" 
d="M72 1327h416v-1327h-416v1327zM407 1420l-111 131l-118 -131h-280l257 282h282l241 -282h-271z" />
    <glyph glyph-name="idieresis" unicode="&#xef;" horiz-adv-x="561" 
d="M72 1327h416v-1327h-416v1327zM-61 1680h276v-260h-276v260zM362 1680h275v-260h-275v260z" />
    <glyph glyph-name="ntilde" unicode="&#xf1;" horiz-adv-x="1071" 
d="M72 1327l407 1l2 -75c56 52 138 98 249 98c69 0 126 -16 170 -49s72 -74 85 -124c13 -49 19 -132 19 -248v-930h-404l-1 886c0 91 -3 147 -9 167s-23 30 -50 30c-29 0 -47 -12 -54 -35s-11 -84 -11 -184l1 -864h-404v1327zM796 1725l183 -97c-47 -96 -92 -157 -137 -184
s-84 -40 -118 -40c-47 0 -98 11 -153 33l-74 29c-47 19 -83 29 -106 29c-49 0 -90 -33 -122 -100l-176 118c87 137 176 206 268 206c48 0 100 -11 157 -32l62 -23c52 -19 87 -29 106 -29c55 0 92 30 110 90z" />
    <glyph glyph-name="oacute" unicode="&#xf3;" 
d="M986 861v-325c0 -119 -6 -207 -18 -263c-12 -55 -38 -107 -77 -156c-79 -96 -204 -141 -364 -141c-179 0 -303 39 -372 118c-34 40 -58 88 -73 144c-15 57 -22 141 -22 254v340c0 123 13 220 40 289c53 139 194 230 410 230c181 0 313 -59 384 -146
c35 -43 59 -88 72 -134s20 -116 20 -210zM595 353v612c0 68 -6 110 -18 126c-11 17 -29 25 -53 25s-42 -9 -54 -27c-11 -17 -17 -60 -17 -128v-599c0 -63 6 -104 17 -123c12 -19 30 -28 53 -28c24 0 42 9 54 28s18 57 18 114zM509 1691h356l-256 -271h-203z" />
    <glyph glyph-name="ograve" unicode="&#xf2;" 
d="M986 861v-325c0 -119 -6 -207 -18 -263c-12 -55 -38 -107 -77 -156c-79 -96 -204 -141 -364 -141c-179 0 -303 39 -372 118c-34 40 -58 88 -73 144c-15 57 -22 141 -22 254v340c0 123 13 220 40 289c53 139 194 230 410 230c181 0 313 -59 384 -146
c35 -43 59 -88 72 -134s20 -116 20 -210zM595 353v612c0 68 -6 110 -18 126c-11 17 -29 25 -53 25s-42 -9 -54 -27c-11 -17 -17 -60 -17 -128v-599c0 -63 6 -104 17 -123c12 -19 30 -28 53 -28c24 0 42 9 54 28s18 57 18 114zM418 1420l-236 271h356l83 -271h-203z" />
    <glyph glyph-name="ocircumflex" unicode="&#xf4;" 
d="M986 861v-325c0 -119 -6 -207 -18 -263c-12 -55 -38 -107 -77 -156c-79 -96 -204 -141 -364 -141c-179 0 -303 39 -372 118c-34 40 -58 88 -73 144c-15 57 -22 141 -22 254v340c0 123 13 220 40 289c53 139 194 230 410 230c181 0 313 -59 384 -146
c35 -43 59 -88 72 -134s20 -116 20 -210zM595 353v612c0 68 -6 110 -18 126c-11 17 -29 25 -53 25s-42 -9 -54 -27c-11 -17 -17 -60 -17 -128v-599c0 -63 6 -104 17 -123c12 -19 30 -28 53 -28c24 0 42 9 54 28s18 57 18 114zM642 1420l-111 131l-118 -131h-280l257 282h282
l241 -282h-271z" />
    <glyph glyph-name="odieresis" unicode="&#xf6;" 
d="M986 861v-325c0 -119 -6 -207 -18 -263c-12 -55 -38 -107 -77 -156c-79 -96 -204 -141 -364 -141c-179 0 -303 39 -372 118c-34 40 -58 88 -73 144c-15 57 -22 141 -22 254v340c0 123 13 220 40 289c53 139 194 230 410 230c181 0 313 -59 384 -146
c35 -43 59 -88 72 -134s20 -116 20 -210zM595 353v612c0 68 -6 110 -18 126c-11 17 -29 25 -53 25s-42 -9 -54 -27c-11 -17 -17 -60 -17 -128v-599c0 -63 6 -104 17 -123c12 -19 30 -28 53 -28c24 0 42 9 54 28s18 57 18 114zM174 1680h276v-260h-276v260zM597 1680h275
v-260h-275v260z" />
    <glyph glyph-name="otilde" unicode="&#xf5;" 
d="M986 861v-325c0 -119 -6 -207 -18 -263c-12 -55 -38 -107 -77 -156c-79 -96 -204 -141 -364 -141c-179 0 -303 39 -372 118c-34 40 -58 88 -73 144c-15 57 -22 141 -22 254v340c0 123 13 220 40 289c53 139 194 230 410 230c181 0 313 -59 384 -146
c35 -43 59 -88 72 -134s20 -116 20 -210zM595 353v612c0 68 -6 110 -18 126c-11 17 -29 25 -53 25s-42 -9 -54 -27c-11 -17 -17 -60 -17 -128v-599c0 -63 6 -104 17 -123c12 -19 30 -28 53 -28c24 0 42 9 54 28s18 57 18 114zM784 1725l183 -97c-47 -96 -92 -157 -137 -184
s-84 -40 -118 -40c-47 0 -98 11 -153 33l-74 29c-47 19 -83 29 -106 29c-49 0 -90 -33 -122 -100l-176 118c87 137 176 206 268 206c48 0 100 -11 157 -32l62 -23c52 -19 87 -29 106 -29c55 0 92 30 110 90z" />
    <glyph glyph-name="uacute" unicode="&#xfa;" horiz-adv-x="1070" 
d="M593 1327h404v-1327h-404c-16 37 -47 45 -94 24c-46 -20 -94 -30 -144 -30c-133 7 -210 51 -249 122c-19 35 -30 68 -34 99s-6 103 -6 217v895h404v-865c0 -103 3 -165 9 -184c7 -19 24 -29 52 -29c30 0 48 10 53 30c6 20 9 84 9 193v855zM520 1691h356l-256 -271h-203z
" />
    <glyph glyph-name="ugrave" unicode="&#xf9;" horiz-adv-x="1070" 
d="M593 1327h404v-1327h-404c-16 37 -47 45 -94 24c-46 -20 -94 -30 -144 -30c-133 7 -210 51 -249 122c-19 35 -30 68 -34 99s-6 103 -6 217v895h404v-865c0 -103 3 -165 9 -184c7 -19 24 -29 52 -29c30 0 48 10 53 30c6 20 9 84 9 193v855zM429 1420l-236 271h356l83 -271
h-203z" />
    <glyph glyph-name="ucircumflex" unicode="&#xfb;" horiz-adv-x="1070" 
d="M593 1327h404v-1327h-404c-16 37 -47 45 -94 24c-46 -20 -94 -30 -144 -30c-133 7 -210 51 -249 122c-19 35 -30 68 -34 99s-6 103 -6 217v895h404v-865c0 -103 3 -165 9 -184c7 -19 24 -29 52 -29c30 0 48 10 53 30c6 20 9 84 9 193v855zM654 1420l-111 131l-118 -131
h-280l257 282h282l241 -282h-271z" />
    <glyph glyph-name="udieresis" unicode="&#xfc;" horiz-adv-x="1070" 
d="M593 1327h404v-1327h-404c-16 37 -47 45 -94 24c-46 -20 -94 -30 -144 -30c-133 7 -210 51 -249 122c-19 35 -30 68 -34 99s-6 103 -6 217v895h404v-865c0 -103 3 -165 9 -184c7 -19 24 -29 52 -29c30 0 48 10 53 30c6 20 9 84 9 193v855zM186 1680h276v-260h-276v260z
M609 1680h275v-260h-275v260z" />
    <glyph glyph-name="degree" unicode="&#xb0;" horiz-adv-x="711" 
d="M36 1314c0 95 32 173 95 234c63 62 138 93 224 93c89 0 164 -31 226 -94c62 -62 93 -137 93 -225s-31 -163 -94 -226c-62 -62 -137 -93 -224 -93c-94 0 -171 32 -231 97c-59 65 -89 137 -89 214zM234 1329c0 -37 12 -68 36 -92c25 -24 54 -36 88 -36s63 12 87 36
c25 25 37 55 37 91c0 32 -12 60 -37 84c-24 25 -53 37 -87 37c-35 0 -65 -13 -89 -38c-23 -25 -35 -53 -35 -82z" />
    <glyph glyph-name="cent" unicode="&#xa2;" horiz-adv-x="1059" 
d="M1004 922l-383 -1c-14 168 -25 262 -34 282c-8 21 -26 31 -55 31c-27 0 -46 -9 -55 -26s-13 -63 -13 -137v-621c0 -73 4 -119 13 -140c9 -20 26 -30 53 -30c33 0 56 14 68 41c13 27 20 134 23 319h383c1 -30 1 -52 1 -66c0 -159 -30 -281 -90 -366
c-59 -85 -155 -141 -286 -170v-165h-186v165c-88 12 -166 45 -233 98c-67 54 -109 110 -126 168c-16 59 -24 154 -24 285v298c0 135 8 235 25 300s57 125 120 178c63 54 142 91 238 110v137h186v-137c131 -24 244 -94 305 -185c31 -45 50 -91 58 -137c8 -45 12 -122 12 -231
z" />
    <glyph glyph-name="sterling" unicode="&#xa3;" horiz-adv-x="1096" 
d="M999 1098h-362v147c0 65 -1 107 -4 124c-4 36 -34 68 -75 68c-27 0 -49 -11 -66 -34s-26 -48 -26 -77c0 -37 15 -106 44 -207c31 -111 47 -177 48 -198h255v-276h-231c-2 -181 -67 -318 -194 -409c12 1 27 3 45 6c20 3 38 5 54 5c22 0 53 -3 92 -10c15 -3 29 -4 41 -4
c27 0 48 8 65 25c16 17 24 61 24 132c0 11 0 32 -1 64h340l-1 -129c0 -97 -7 -166 -21 -209c-28 -84 -130 -147 -278 -147c-47 0 -115 11 -205 34c-87 23 -163 34 -226 34c-100 0 -182 -23 -245 -68v236c29 19 52 44 70 73c19 30 36 79 51 146c15 68 23 127 23 177
c0 11 0 25 -1 44h-143v276h99c-56 107 -84 209 -84 306c0 139 43 245 129 316s195 107 328 107c142 0 255 -38 339 -113s126 -177 126 -307c0 -35 -3 -79 -10 -132z" />
    <glyph glyph-name="section" unicode="&#xa7;" horiz-adv-x="991" 
d="M860 1045l-302 228v25c0 67 -27 100 -83 100c-40 0 -60 -19 -60 -59c0 -21 10 -43 31 -67c20 -24 74 -68 161 -131c157 -113 254 -196 291 -247c38 -51 57 -106 57 -165c0 -123 -72 -218 -217 -285c115 -119 172 -226 172 -323c0 -89 -37 -170 -111 -242
c-73 -72 -175 -108 -306 -108c-111 0 -202 30 -272 91c-70 60 -106 232 -108 516l320 -232c0 -86 26 -129 79 -129c43 0 63 22 63 66c0 24 -10 48 -31 71s-57 53 -108 90c-152 109 -257 193 -314 253c-57 61 -86 126 -86 197c0 110 72 206 216 289
c-112 101 -169 208 -169 320c0 87 34 167 102 240c69 73 171 110 307 110c108 0 199 -28 273 -84c75 -55 106 -230 95 -524zM382 869c-23 -24 -35 -49 -35 -75c0 -19 8 -38 25 -56c17 -17 60 -51 129 -100l108 -80c23 21 35 46 35 75c0 20 -12 41 -35 64s-69 59 -140 109
c-30 21 -59 42 -87 63z" />
    <glyph glyph-name="bullet" unicode="&#x2022;" horiz-adv-x="712" 
d="M651 817c0 -88 -29 -161 -88 -218s-128 -85 -207 -85c-82 0 -152 29 -210 86c-57 58 -86 128 -86 210c0 81 29 150 87 208s127 87 208 87c87 0 158 -30 213 -90s83 -126 83 -198z" />
    <glyph glyph-name="paragraph" unicode="&#xb6;" horiz-adv-x="1180" 
d="M710 1357v-1579l-280 1v1018c-263 29 -394 164 -394 403c0 156 65 279 166 346c51 33 100 54 147 61c47 8 121 12 221 12h597v-261l-73 -1v-1579l-277 1v1579z" />
    <glyph glyph-name="germandbls" unicode="&#xdf;" horiz-adv-x="1127" 
d="M902 1023c48 -22 86 -57 115 -105s43 -143 43 -286v-149c0 -99 -7 -173 -21 -224s-42 -98 -84 -142c-84 -87 -187 -117 -347 -117h-77v245h46c37 0 59 6 67 18s12 59 12 141v396c-1 46 -6 77 -15 93s-31 26 -64 31v246c15 0 29 4 42 12c13 9 20 36 20 82
c0 103 -27 154 -82 154c-31 0 -53 -11 -64 -34s-17 -68 -17 -135v-1249h-404v1081c0 157 9 268 26 333c18 66 63 122 135 169c73 47 173 70 302 70c159 0 283 -32 371 -97c89 -65 133 -155 133 -270c0 -105 -46 -192 -137 -263z" />
    <glyph glyph-name="registered" unicode="&#xae;" horiz-adv-x="1605" 
d="M782 1532c229 0 417 -76 564 -228c148 -152 222 -331 222 -538c0 -211 -75 -391 -225 -541s-330 -225 -541 -225c-212 0 -393 75 -542 224c-149 150 -224 331 -224 542c0 149 39 285 118 409c79 125 178 215 297 272s229 85 331 85zM820 1383c-188 0 -340 -62 -457 -186
s-175 -268 -175 -431c0 -169 60 -314 181 -435s266 -181 435 -181s313 60 434 181s181 266 181 435c0 117 -30 224 -91 322c-61 99 -139 172 -234 221s-187 74 -274 74zM670 357h-205v813h385c95 0 165 -22 208 -67c43 -44 65 -98 65 -163c0 -125 -63 -203 -166 -230l46 -52
c20 -21 76 -122 169 -301l-224 1l-68 131c-41 78 -77 131 -108 159c-31 29 -57 43 -80 43l-22 -1v-333zM669 1020l2 -185l74 -1c115 -3 163 41 160 96c0 49 -43 88 -156 88z" />
    <glyph glyph-name="copyright" unicode="&#xa9;" horiz-adv-x="1605" 
d="M782 1532c232 0 421 -77 567 -230s219 -332 219 -536c0 -211 -75 -391 -225 -541s-330 -225 -541 -225c-212 0 -393 75 -542 224c-149 150 -224 331 -224 542c0 145 38 279 113 401c76 122 173 213 292 274s232 91 341 91zM818 1381c-184 0 -335 -61 -454 -183
c-118 -122 -177 -266 -177 -432c0 -169 60 -313 180 -434c121 -121 266 -181 435 -181s314 60 434 181c121 121 181 265 181 434c0 176 -62 322 -187 439c-124 117 -261 176 -412 176zM988 664h176c-29 -198 -147 -307 -354 -326c-117 0 -210 38 -280 115
c-69 77 -104 180 -104 309c0 133 35 237 106 313c71 77 162 115 274 115c209 -10 329 -109 358 -296h-177c-32 83 -87 125 -166 125c-125 0 -195 -98 -195 -247c0 -167 68 -262 185 -262c85 0 144 51 177 154z" />
    <glyph glyph-name="trademark" unicode="&#x2122;" horiz-adv-x="1603" 
d="M442 800h-191v677h-239v142h665v-142h-235v-677zM894 800h-172v819h275l152 -493l146 493h276v-819h-174v586l-177 -586h-150l-175 583z" />
    <glyph glyph-name="acute" unicode="&#xb4;" horiz-adv-x="683" 
d="M327 1772h356l-256 -271h-203z" />
    <glyph glyph-name="dieresis" unicode="&#xa8;" horiz-adv-x="683" 
d="M-7 1761h276v-260h-276v260zM416 1761h275v-260h-275v260z" />
    <glyph glyph-name="plusminus" unicode="&#xb1;" horiz-adv-x="1092" 
d="M667 898v-355h-244v355h-359v244h359v360h244v-360h361v-244h-361zM64 179v244h964v-244h-964z" />
    <glyph glyph-name="yen" unicode="&#xa5;" horiz-adv-x="969" 
d="M981 1619l-189 -637h174v-172h-225l-67 -224h292v-231h-292v-355h-390v355h-282v231h282l-64 224h-218v172h168l-182 637h387c61 -315 95 -528 102 -637c23 173 62 385 117 637h387z" />
    <glyph glyph-name="mu1" unicode="&#xb5;" horiz-adv-x="965" 
d="M72 -407v1734h324v-957c0 -94 26 -141 78 -141c65 0 97 77 97 232v866h321v-1327h-306v69c-41 -59 -104 -89 -190 -90v-386h-324z" />
    <glyph glyph-name="ae" unicode="&#xe6;" horiz-adv-x="1543" 
d="M1482 811v-171h-527v-268c0 -68 4 -112 13 -132c9 -19 27 -29 55 -29c30 0 50 10 61 30s16 61 16 124v189h382v-134c0 -87 -13 -161 -40 -221c-26 -60 -74 -112 -143 -157c-69 -44 -154 -66 -255 -66c-187 0 -317 51 -393 152c-73 -101 -174 -152 -299 -152
c-73 0 -134 15 -182 45c-47 30 -79 68 -94 114s-22 121 -22 226c0 93 7 157 20 191c14 35 42 65 85 92s116 59 221 96c55 19 93 34 112 47s33 28 40 47s11 60 11 123c0 119 -13 159 -57 159c-21 0 -35 -10 -42 -29c-6 -19 -9 -68 -9 -147v-127h-379v99c0 73 5 131 15 173
c11 42 34 84 71 126c75 85 183 140 360 140c99 0 191 -24 275 -72c61 48 143 72 244 72s188 -22 261 -66s125 -100 155 -169s45 -170 45 -305zM955 856h123v120c0 62 -6 101 -17 116c-11 16 -26 24 -44 24c-22 0 -38 -9 -48 -27c-9 -18 -14 -56 -14 -113v-120zM551 409v214
c-51 -37 -86 -71 -104 -102c-17 -30 -26 -86 -26 -169c0 -103 17 -141 72 -141c39 0 57 27 57 79z" />
    <glyph glyph-name="oslash" unicode="&#xf8;" 
d="M964 1262l-52 -81c26 -35 45 -74 56 -116c12 -41 18 -109 18 -204v-325c0 -119 -6 -207 -18 -263c-12 -55 -38 -107 -77 -156c-79 -96 -203 -141 -364 -141c-152 0 -264 29 -335 85l-31 -47l-79 51l45 69c-23 37 -40 79 -51 126s-16 124 -16 232v340c0 123 13 220 40 289
c53 139 194 230 410 230c140 0 252 -33 335 -100l41 62zM464 655l118 180v126c0 68 -4 111 -11 128c-7 18 -23 27 -47 27s-40 -9 -48 -27c-8 -17 -12 -60 -12 -128v-306zM582 662l-118 -181v-119c0 -63 4 -104 12 -123s24 -28 47 -28c24 0 40 9 47 26c8 17 12 55 12 112v313
z" />
    <glyph glyph-name="exclamdown" unicode="&#xa1;" horiz-adv-x="553" 
d="M447 1100h-378v324h378v-324zM480 -195h-444l33 1219l379 1z" />
    <glyph glyph-name="logicalnot" unicode="&#xac;" horiz-adv-x="1092" 
d="M64 881v245h964v-634h-244v389h-720z" />
    <glyph glyph-name="florin" unicode="&#x192;" horiz-adv-x="908" 
d="M694 1650h214l-63 -311c-38 0 -61 -2 -70 -5s-15 -17 -20 -44l-9 -42l-47 -244h148l-48 -243h-147l-133 -673c-25 -127 -62 -212 -110 -254c-47 -42 -139 -63 -276 -63h-181l61 313c41 0 64 3 70 8c7 6 14 31 23 75l121 594h-139l45 243h144l60 312c23 122 48 200 75 234
s59 59 94 75c35 17 98 25 188 25z" />
    <glyph glyph-name="guillemotleft" unicode="&#xab;" horiz-adv-x="760" 
d="M0 696l120 542h237l-120 -542l120 -572h-237zM366 696l121 542h237l-121 -542l121 -572h-237z" />
    <glyph glyph-name="nbspace" unicode="&#xa0;" horiz-adv-x="361" 
 />
    <glyph glyph-name="OE" unicode="&#x152;" horiz-adv-x="1410" 
d="M743 1619h596v-324h-284v-307h271v-308h-271v-356h318v-324h-633c-91 -11 -154 -17 -189 -17c-85 0 -164 15 -235 45c-71 31 -124 69 -159 115s-58 94 -69 144c-11 51 -16 131 -16 241v529c0 120 5 208 14 264s33 108 72 156c77 97 208 159 400 159c55 0 117 -6 185 -17z
M634 502v608c0 33 0 58 -1 74c-1 29 -2 50 -2 61c0 78 -23 117 -70 117c-55 0 -67 -31 -67 -119l-1 -73v-649c0 -125 3 -201 10 -226s26 -38 57 -38s51 14 60 43s14 96 14 202z" />
    <glyph glyph-name="oe" unicode="&#x153;" horiz-adv-x="1567" 
d="M1506 831v-191h-520v-297c0 -55 4 -90 12 -107c9 -17 25 -25 49 -25c57 0 77 52 77 179v164h382v-131c0 -90 -14 -165 -42 -225s-78 -112 -151 -156s-159 -66 -258 -66c-105 0 -196 21 -273 62c-73 -41 -158 -62 -257 -62c-181 0 -314 64 -385 151c-35 44 -57 89 -66 135
s-14 124 -14 233v290c0 143 9 246 27 309c19 64 65 123 139 176c75 54 169 81 283 81c101 0 193 -27 273 -80c69 53 157 80 261 80c94 0 182 -23 264 -68s136 -103 161 -175s38 -164 38 -277zM582 373v552c0 86 -4 139 -11 160s-24 31 -50 31c-23 0 -38 -10 -46 -29
c-7 -19 -11 -60 -11 -122v-578c0 -83 3 -134 9 -151s22 -25 48 -25c25 0 41 9 49 28s12 64 12 134zM986 855h116v142c0 57 -6 91 -19 102c-12 11 -25 17 -40 17c-22 0 -37 -8 -45 -23s-12 -47 -12 -96v-142z" />
    <glyph glyph-name="endash" unicode="&#x2013;" horiz-adv-x="1024" 
d="M0 540v249h1025v-249h-1025z" />
    <glyph glyph-name="emdash" unicode="&#x2014;" horiz-adv-x="2048" 
d="M0 540v249h2047v-249h-2047z" />
    <glyph glyph-name="quotedblleft" unicode="&#x201c;" horiz-adv-x="706" 
d="M669 1095h-271v145c0 76 9 138 27 187c37 97 132 169 244 192v-116v-91v-317zM307 1095h-271v145c0 76 9 138 27 187c19 49 50 90 94 124c45 34 95 57 150 68v-116v-91v-317z" />
    <glyph glyph-name="quotedblright" unicode="&#x201d;" horiz-adv-x="706" 
d="M398 1619h271v-145c0 -75 -9 -138 -27 -187c-36 -97 -132 -168 -244 -192v117v90v317zM36 1619h271v-145c0 -75 -9 -138 -27 -187c-36 -97 -132 -168 -244 -192v117v90v317z" />
    <glyph glyph-name="quoteleft" unicode="&#x2018;" horiz-adv-x="344" 
d="M307 1095h-271v145c0 76 9 138 27 187c19 49 50 90 94 124c45 34 95 57 150 68v-116v-91v-317z" />
    <glyph glyph-name="quoteright" unicode="&#x2019;" horiz-adv-x="344" 
d="M36 1619h271v-145c0 -75 -9 -138 -27 -187c-36 -97 -132 -168 -244 -192v117v90v317z" />
    <glyph glyph-name="divide" unicode="&#xf7;" horiz-adv-x="1092" 
d="M404 1144c0 39 14 72 41 99c28 27 61 40 98 40c38 0 71 -14 98 -41s41 -60 41 -97c0 -38 -14 -71 -41 -98s-60 -41 -98 -41c-39 0 -72 14 -99 42s-40 60 -40 96zM64 691v236h952v-236h-952zM404 476c0 42 14 76 42 103s61 40 98 40c38 0 71 -14 98 -41
c28 -27 42 -60 42 -99c0 -38 -14 -71 -41 -98s-60 -41 -99 -41s-73 14 -100 42s-40 59 -40 94z" />
    <glyph glyph-name="ydieresis" unicode="&#xff;" horiz-adv-x="918" 
d="M551 1327h367c-127 -791 -196 -1215 -209 -1270c-12 -55 -32 -101 -61 -137s-61 -63 -96 -80s-109 -26 -221 -26h-245c85 63 141 123 166 180s21 153 -12 288l-252 1045h367l130 -828zM124 1680h276v-260h-276v260zM547 1680h275v-260h-275v260z" />
    <glyph glyph-name="Ydieresis" unicode="&#x178;" horiz-adv-x="969" 
d="M594 1619h387l-307 -1033v-586h-390v586l-296 1033h387l101 -568zM136 1930h276v-260h-276v260zM559 1930h275v-260h-275v260z" />
    <glyph glyph-name="Euro" unicode="&#x20ac;" horiz-adv-x="1087" 
d="M457 1182v-146h161v-173l-161 1v-80h161v-172h-161v-182c0 -57 2 -95 6 -116c8 -41 42 -74 90 -74c20 0 38 6 55 17c17 12 29 28 36 49s12 68 14 139v154l362 -1v-63c0 -150 -14 -261 -42 -333c-28 -71 -80 -129 -155 -172s-167 -65 -274 -65c-86 0 -163 15 -232 45
c-69 31 -121 71 -158 122s-60 106 -71 166s-16 150 -16 271v43h-97v172h97v80h-97v172h97v29c0 104 4 187 13 248s34 118 75 171c81 105 226 169 401 169c87 0 165 -16 235 -47c71 -31 126 -82 165 -152c39 -69 59 -182 59 -338v-53l-362 -1v133c-2 65 -6 107 -13 126
c-12 39 -31 57 -82 57c-29 0 -53 -7 -70 -21c-17 -13 -28 -31 -31 -54c-3 -22 -5 -62 -5 -121z" />
    <glyph glyph-name="guilsinglleft" unicode="&#x2039;" horiz-adv-x="405" 
d="M36 696l87 561h245l-87 -561l87 -592h-245z" />
    <glyph glyph-name="guilsinglright" unicode="&#x203a;" horiz-adv-x="405" 
d="M36 1257h245l87 -561l-87 -592h-245l87 592z" />
    <glyph glyph-name="daggerdbl" unicode="&#x2021;" horiz-adv-x="1113" 
d="M355 1245v375l404 1v-375h298v-380h-298v-298h298v-381h-298v-374l-404 -1v374h-298v381h298v298h-298v380h298z" />
    <glyph glyph-name="quotesinglbase" unicode="&#x201a;" horiz-adv-x="344" 
d="M36 317h271v-145c0 -76 -9 -138 -27 -187c-36 -97 -132 -169 -244 -192v116v91v317z" />
    <glyph glyph-name="quotedblbase" unicode="&#x201e;" horiz-adv-x="706" 
d="M398 317h271v-145c0 -76 -9 -138 -27 -187c-36 -97 -132 -169 -244 -192v116v91v317zM36 317h271v-145c0 -76 -9 -138 -27 -187c-36 -97 -132 -169 -244 -192v116v91v317z" />
    <glyph glyph-name="perthousand" unicode="&#x2030;" horiz-adv-x="2099" 
d="M951 1650h152l-633 -1681h-154zM632 1343v-278c0 -73 -7 -127 -21 -164c-13 -36 -43 -68 -88 -95s-104 -40 -178 -40c-85 0 -150 13 -195 38c-45 26 -75 57 -91 93c-15 36 -23 88 -23 155v291c0 80 8 139 24 177c33 77 131 130 268 130c76 0 138 -13 185 -40
c47 -26 79 -58 95 -95s24 -95 24 -172zM376 999v415c0 43 -2 69 -7 79c-4 10 -16 15 -35 15c-18 0 -30 -5 -35 -16s-8 -37 -8 -78v-408c0 -47 2 -75 7 -84s17 -14 37 -14c17 0 28 5 33 16s8 36 8 75zM1383 561v-279c0 -72 -7 -126 -21 -163c-27 -73 -118 -136 -266 -136
c-85 0 -150 13 -195 39s-75 57 -91 93c-15 36 -23 87 -23 154v292c0 79 8 138 24 176c33 77 131 131 268 131c77 0 139 -13 186 -40s79 -59 94 -96c16 -37 24 -94 24 -171zM1127 217v414c0 43 -2 69 -7 79c-4 11 -16 16 -35 16c-18 0 -30 -5 -35 -16s-7 -37 -7 -79v-408
c0 -46 2 -74 7 -83s17 -14 36 -14c18 0 29 5 34 15c5 11 7 36 7 76zM2063 561v-279c0 -72 -7 -126 -21 -163c-27 -73 -118 -136 -266 -136c-85 0 -150 13 -195 39s-75 57 -91 93c-15 36 -23 87 -23 154v292c0 79 8 138 24 176c33 77 131 131 268 131c77 0 138 -13 185 -40
s79 -59 95 -96s24 -94 24 -171zM1807 217v414c0 43 -2 69 -7 79c-4 11 -16 16 -35 16c-18 0 -30 -5 -35 -16s-7 -37 -7 -79v-408c0 -46 2 -74 7 -83s17 -14 36 -14c17 0 28 5 33 15c5 11 8 36 8 76z" />
    <glyph glyph-name="Uacute" unicode="&#xda;" horiz-adv-x="1120" 
d="M620 1619h421v-1082c0 -123 -4 -209 -12 -259c-8 -49 -32 -100 -71 -153c-79 -104 -208 -159 -383 -159c-97 0 -182 16 -256 48s-129 74 -166 125s-58 105 -65 162s-10 177 -10 360v958h421l1 -1148c-4 -68 -2 -113 7 -135s25 -33 48 -33c27 0 44 11 51 32
c8 22 12 73 12 154zM545 1941h356l-256 -271h-203z" />
    <glyph glyph-name="Ucircumflex" unicode="&#xdb;" horiz-adv-x="1120" 
d="M620 1619h421v-1082c0 -123 -4 -209 -12 -259c-8 -49 -32 -100 -71 -153c-79 -104 -208 -159 -383 -159c-97 0 -182 16 -256 48s-129 74 -166 125s-58 105 -65 162s-10 177 -10 360v958h421l1 -1148c-4 -68 -2 -113 7 -135s25 -33 48 -33c27 0 44 11 51 32
c8 22 12 73 12 154zM679 1670l-111 131l-118 -131h-280l257 282h282l241 -282h-271z" />
    <glyph glyph-name="Ugrave" unicode="&#xd9;" horiz-adv-x="1120" 
d="M620 1619h421v-1082c0 -123 -4 -209 -12 -259c-8 -49 -32 -100 -71 -153c-79 -104 -208 -159 -383 -159c-97 0 -182 16 -256 48s-129 74 -166 125s-58 105 -65 162s-10 177 -10 360v958h421l1 -1148c-4 -68 -2 -113 7 -135s25 -33 48 -33c27 0 44 11 51 32
c8 22 12 73 12 154zM454 1670l-236 271h356l83 -271h-203z" />
    <glyph glyph-name="circumflex" unicode="&#x2c6;" horiz-adv-x="683" 
d="M461 1501l-111 131l-118 -131h-280l257 282h282l241 -282h-271z" />
    <glyph glyph-name="tilde" unicode="&#x2dc;" horiz-adv-x="683" 
d="M602 1806l183 -97c-47 -96 -92 -157 -137 -184s-84 -40 -118 -40c-47 0 -98 11 -153 33l-74 29c-47 19 -83 29 -106 29c-49 0 -90 -33 -122 -100l-176 118c87 137 176 206 268 206c48 0 100 -11 157 -32l62 -23c52 -19 87 -29 106 -29c55 0 92 30 110 90z" />
    <glyph glyph-name="cedilla" unicode="&#xb8;" horiz-adv-x="683" 
d="M261 12h117v-124c35 0 67 -12 98 -35s46 -56 46 -97c0 -51 -21 -95 -62 -132s-91 -56 -148 -56c-104 0 -170 53 -199 158h148c9 -27 26 -41 50 -41c40 0 59 20 59 60c0 44 -27 66 -83 66c-6 0 -15 0 -26 -1v202z" />
    <glyph glyph-name="Scaron" unicode="&#x160;" horiz-adv-x="1059" 
d="M976 1193v-310l-391 246v120c0 56 -5 92 -15 107s-27 23 -50 23c-51 0 -77 -41 -77 -125c0 -54 7 -95 22 -122c14 -27 54 -60 119 -99c187 -111 305 -203 354 -274s73 -186 73 -345c0 -115 -14 -200 -41 -255s-79 -101 -156 -138s-167 -55 -270 -55
c-113 0 -209 21 -289 64c-79 43 -131 97 -156 163s-37 160 -37 281v364l391 -258v-197c0 -61 5 -100 16 -117s31 -26 59 -26c56 0 83 44 83 131c0 95 -13 158 -39 187c-27 29 -92 78 -197 147s-174 120 -208 151c-68 63 -118 170 -118 342c0 124 16 215 47 272
c64 115 210 183 410 183c109 0 202 -18 279 -53s128 -80 153 -134c25 -53 38 -144 38 -273zM419 1952l117 -108l112 108h271l-241 -282h-282l-257 282h280z" />
    <glyph glyph-name="scaron" unicode="&#x161;" horiz-adv-x="964" 
d="M909 980v-258l-347 177v72c3 59 -1 97 -14 116c-12 19 -32 29 -60 29c-45 0 -68 -30 -68 -90c0 -41 3 -71 8 -90c6 -19 23 -39 51 -62c29 -23 87 -56 175 -99c117 -57 194 -111 231 -162s55 -124 55 -221c0 -108 -14 -190 -42 -245c-56 -109 -193 -171 -378 -171
c-103 0 -191 16 -264 48s-123 75 -150 130s-41 137 -41 248l2 237l356 -189v-68c1 -114 23 -171 67 -171c29 0 49 7 60 21c11 15 17 45 17 91c0 63 -7 103 -22 119s-94 63 -235 142c-119 67 -191 127 -217 181c-26 55 -39 119 -39 194c0 106 14 184 42 234
c28 51 75 90 142 117s145 41 234 41c176 0 301 -49 366 -122c33 -37 53 -71 60 -102s11 -80 11 -147zM372 1702l117 -108l112 108h271l-241 -282h-282l-257 282h280z" />
    <glyph glyph-name="Zcaron" unicode="&#x17d;" horiz-adv-x="813" 
d="M42 1619h738l-1 -306l-313 -989h314v-324h-776v322l347 991h-310zM296 1952l117 -108l112 108h271l-241 -282h-282l-257 282h280z" />
    <glyph glyph-name="zcaron" unicode="&#x17e;" horiz-adv-x="719" 
d="M43 1327h658v-294l-297 -733h298l-1 -300h-689v301l305 747h-274v279zM232 1702l117 -108l112 108h271l-241 -282h-282l-257 282h280z" />
    <glyph glyph-name="brokenbar" unicode="&#xa6;" horiz-adv-x="555" 
d="M169 804v815h244v-815h-244zM169 -265v815h244v-815h-244z" />
    <glyph glyph-name="eth" unicode="&#xf0;" 
d="M370 1619h245c18 -13 35 -26 51 -40l161 40l30 -89l-114 -32c45 -53 88 -116 129 -190s70 -149 88 -225c18 -75 27 -178 27 -308v-302c0 -111 -15 -202 -44 -272c-57 -140 -206 -225 -427 -225c-111 0 -203 19 -274 56c-71 38 -119 89 -144 153c-25 65 -38 168 -38 309
v292c0 117 11 207 34 270s64 118 122 165c59 47 125 70 199 70c65 0 121 -19 168 -56c-13 71 -37 139 -74 202l-192 -52l-30 91l167 46c-33 45 -61 77 -84 97zM583 362v545c0 66 -4 107 -12 124c-7 17 -23 25 -47 25c-45 0 -60 -35 -60 -136v-569c0 -111 18 -140 61 -140
c21 0 35 9 44 27c9 19 14 60 14 124z" />
    <glyph glyph-name="Yacute" unicode="&#xdd;" horiz-adv-x="969" 
d="M594 1619h387l-307 -1033v-586h-390v586l-296 1033h387l101 -568zM470 1941h356l-256 -271h-203z" />
    <glyph glyph-name="yacute" unicode="&#xfd;" horiz-adv-x="918" 
d="M551 1327h367c-127 -791 -196 -1215 -209 -1270c-12 -55 -32 -101 -61 -137s-61 -63 -96 -80s-109 -26 -221 -26h-245c85 63 141 123 166 180s21 153 -12 288l-252 1045h367l130 -828zM458 1691h356l-256 -271h-203z" />
    <glyph glyph-name="Thorn" unicode="&#xde;" horiz-adv-x="1028" 
d="M505 1619v-302c117 0 205 -8 263 -25c59 -17 105 -43 140 -80c35 -36 58 -77 68 -123c10 -45 15 -120 15 -225v-140c0 -96 -9 -168 -28 -217c-37 -97 -145 -157 -345 -157h-113v-350h-421v1619h421zM505 1040v-412h31c39 0 65 9 80 28s23 59 23 119v132
c0 54 -9 90 -26 107s-53 26 -108 26z" />
    <glyph glyph-name="thorn" unicode="&#xfe;" horiz-adv-x="1063" 
d="M72 1619h404v-409c71 94 158 141 261 141c63 0 117 -17 162 -51c46 -33 75 -72 86 -116s17 -119 17 -224v-559c0 -121 -7 -207 -22 -258c-28 -101 -123 -167 -248 -167c-100 0 -185 46 -256 139v-304h-404v1808zM598 372v569c0 82 -3 132 -9 149s-23 26 -50 26
s-44 -10 -52 -30c-7 -20 -11 -68 -11 -145v-550c0 -80 4 -130 12 -150s25 -30 52 -30c26 0 42 9 48 27c7 19 10 63 10 134z" />
    <glyph glyph-name="multiply" unicode="&#xd7;" horiz-adv-x="1092" 
d="M374 822l-300 300l172 172l300 -312l299 312l173 -172l-299 -300l297 -296l-172 -173l-298 308l-297 -307l-172 172z" />
    <glyph glyph-name="overscore.001" unicode="&#xaf;" horiz-adv-x="1131" 
d="M-12 1690v102h1155v-102h-1155z" />
    <glyph glyph-name="middot.001" unicode="&#xb7;" horiz-adv-x="683" 
d="M719 844c39 0 74 -14 103 -42s44 -63 44 -104s-14 -75 -43 -104s-63 -43 -104 -43c-40 0 -74 14 -103 43s-43 63 -43 104s14 75 43 103c29 29 63 43 103 43z" />
    <glyph glyph-name="imacron" unicode="&#x12b;" horiz-adv-x="561" 
d="M72 1327h416v-1327h-416v1327zM-113 1593h796v-173h-796v173z" />
    <glyph glyph-name="racute" unicode="&#x155;" horiz-adv-x="733" 
d="M72 1327l404 1c-4 -67 76 -59 239 23v-394c-74 0 -128 -10 -163 -30s-56 -48 -64 -84c-8 -35 -12 -117 -12 -246v-597h-404v1327zM328 1772h356l-256 -271h-203z" />
    <glyph glyph-name="Rcedilla" unicode="&#x156;" horiz-adv-x="1103" 
d="M415 -336v256h272v-84c0 -215 -91 -341 -272 -379v117c39 23 61 53 67 90h-67zM84 0v1619h298c199 0 333 -9 404 -27s128 -56 171 -115s66 -159 67 -300c0 -111 -16 -190 -47 -237s-79 -81 -143 -102c83 -21 132 -47 147 -80c15 -32 25 -63 32 -92s11 -108 11 -239v-427
h-368v538c-6 78 -18 128 -37 150c-18 23 -56 37 -114 42v-730h-421zM505 1342v-360c47 0 84 6 111 19s40 56 40 127v89c0 51 -13 85 -39 101s-63 24 -112 24z" />
    <glyph glyph-name="peseta" unicode="&#x20a7;" horiz-adv-x="2630" 
d="M506 651v-651h-422v1620h424c200 -2 326 -30 378 -83s82 -104 91 -151s14 -121 14 -221v-139c0 -162 -32 -265 -97 -309s-157 -66 -276 -66h-112zM639 1077v131c0 55 -9 90 -26 107s-52 26 -107 26v-411h31c38 0 64 9 79 27c15 19 23 59 23 120zM1035 1328h88l-1 177h404
l1 -177h108l-1 -243h-108v-628c0 -62 2 -102 5 -121s12 -30 25 -35c14 -4 46 -6 97 -6v-295h-164c-85 0 -148 3 -190 10s-79 24 -111 53s-51 66 -57 110c-6 45 -9 124 -9 239v673h-88zM1712 653l354 -208v-119c0 -77 24 -115 72 -115c25 0 43 7 54 20c12 13 18 45 18 95
c0 52 -6 87 -18 106s-45 44 -99 74c-146 82 -240 140 -283 175s-72 73 -88 116s-24 114 -24 211c0 112 33 194 99 245c67 52 174 78 323 78c176 0 301 -35 365 -107c32 -35 51 -69 58 -102c7 -32 11 -80 11 -143l1 -254l-360 193v108c0 68 -18 92 -63 92
c-51 0 -70 -26 -70 -119c0 -71 26 -116 121 -163c111 -57 195 -104 251 -139s95 -77 116 -124c22 -47 33 -107 33 -180c0 -147 -33 -251 -99 -311s-172 -90 -319 -90c-167 0 -287 27 -363 95c-37 35 -62 76 -75 125s-19 112 -19 189z" />
    <glyph glyph-name="currency" unicode="&#xa4;" horiz-adv-x="1123" 
d="M814 1061l132 133l140 -142l-131 -133c49 -81 73 -164 73 -249c0 -90 -24 -175 -73 -254l131 -130l-140 -141l-132 129c-79 -49 -164 -74 -255 -74c-87 0 -170 25 -250 74l-130 -129l-143 141l132 130c-49 79 -74 164 -74 254c0 84 25 167 74 249l-132 133l140 142
l133 -133c83 49 166 74 251 74s170 -25 254 -74zM293 674c0 -79 27 -145 80 -197c53 -51 116 -77 188 -77c74 0 137 26 189 78c53 53 79 116 79 189c0 74 -26 137 -79 189c-52 53 -115 79 -189 79c-77 0 -141 -27 -192 -82c-51 -54 -76 -114 -76 -179z" />
    <glyph glyph-name="Otilde" unicode="&#xd5;" horiz-adv-x="1119" 
d="M1046 948v-277c0 -163 -4 -278 -12 -346c-7 -67 -31 -129 -72 -185c-80 -112 -220 -174 -403 -174c-173 0 -316 57 -400 170c-42 57 -67 118 -75 185s-12 183 -12 350v277c0 163 4 278 11 345c8 68 32 130 72 186c81 112 221 174 404 174c173 0 316 -57 400 -170
c42 -57 67 -118 75 -185s12 -183 12 -350zM644 591v429c0 197 -7 306 -22 327s-35 32 -61 32c-22 0 -43 -9 -62 -27c-19 -17 -28 -128 -28 -333v-441c0 -183 7 -285 22 -306s37 -32 65 -32c29 0 50 12 64 37c15 25 22 130 22 314zM819 2098l183 -97
c-47 -96 -92 -157 -137 -184s-84 -40 -118 -40c-47 0 -98 11 -153 33l-74 29c-47 19 -83 29 -106 29c-49 0 -90 -33 -122 -100l-176 118c87 137 176 206 268 206c48 0 100 -11 157 -32l62 -23c52 -19 87 -29 106 -29c55 0 92 30 110 90z" />
    <glyph glyph-name="Oslash" unicode="&#xd8;" horiz-adv-x="1119" 
d="M1046 948v-277c0 -163 -4 -278 -12 -346c-7 -67 -31 -129 -72 -185c-80 -112 -220 -174 -403 -174c-173 0 -316 57 -400 170c-42 57 -67 118 -75 185s-12 183 -12 350v277c0 163 4 278 11 345c8 68 32 130 72 186c81 112 221 174 404 174c173 0 316 -57 400 -170
c42 -57 67 -118 75 -185s12 -183 12 -350zM644 1020v-429c0 -184 -7 -289 -22 -314c-14 -25 -35 -37 -64 -37c-28 0 -50 11 -65 32s-22 123 -22 306v441c0 205 9 316 28 333c19 18 40 27 62 27c26 0 46 -11 61 -32s22 -130 22 -327zM600 1649h303l-381 -1681h-306z" />
    <glyph glyph-name="Odieresis" unicode="&#xd6;" horiz-adv-x="1119" 
d="M1046 948v-277c0 -163 -4 -278 -12 -346c-7 -67 -31 -129 -72 -185c-80 -112 -220 -174 -403 -174c-173 0 -316 57 -400 170c-42 57 -67 118 -75 185s-12 183 -12 350v277c0 163 4 278 11 345c8 68 32 130 72 186c81 112 221 174 404 174c173 0 316 -57 400 -170
c42 -57 67 -118 75 -185s12 -183 12 -350zM644 591v429c0 197 -7 306 -22 327s-35 32 -61 32c-22 0 -43 -9 -62 -27c-19 -17 -28 -128 -28 -333v-441c0 -183 7 -285 22 -306s37 -32 65 -32c29 0 50 12 64 37c15 25 22 130 22 314zM210 2053h276v-260h-276v260zM633 2053h275
v-260h-275v260z" />
    <glyph glyph-name="Atilde" unicode="&#xc3;" horiz-adv-x="1040" 
d="M256 1618h508l288 -1618l-414 -1l-21 291l-189 -1l-25 -291l-415 2zM444 578h144c-21 183 -43 410 -64 679c-43 -309 -69 -536 -80 -679zM780 2098l183 -97c-47 -96 -92 -157 -137 -184s-84 -40 -118 -40c-47 0 -98 11 -153 33l-74 29c-47 19 -83 29 -106 29
c-49 0 -90 -33 -122 -100l-176 118c87 137 176 206 268 206c48 0 100 -11 157 -32l62 -23c52 -19 87 -29 106 -29c55 0 92 30 110 90z" />
    <glyph glyph-name="Adieresis" unicode="&#xc4;" horiz-adv-x="1040" 
d="M256 1618h508l288 -1618l-414 -1l-21 291l-189 -1l-25 -291l-415 2zM444 578h144c-21 183 -43 410 -64 679c-43 -309 -69 -536 -80 -679zM171 2053h276v-260h-276v260zM594 2053h275v-260h-275v260z" />
    <glyph glyph-name="Aring" unicode="&#xc5;" horiz-adv-x="1040" 
d="M256 1618h508l288 -1618l-414 -1l-21 291l-189 -1l-25 -291l-415 2zM444 578h144c-21 183 -43 410 -64 679c-43 -309 -69 -536 -80 -679zM520 2214c56 0 105 -20 147 -61c42 -40 63 -90 63 -150c0 -58 -21 -108 -62 -149s-91 -61 -148 -61c-59 0 -109 20 -150 61
s-61 91 -61 149s21 108 62 149s91 62 149 62zM518 2082c-44 0 -82 -36 -82 -83c0 -45 38 -82 82 -82c45 0 83 37 83 82c0 47 -38 83 -83 83z" />
    <glyph glyph-name="AE" unicode="&#xc6;" horiz-adv-x="1891" 
d="M256 1618h508l288 -1618l-414 -1l-21 291l-189 -1l-25 -291l-415 2zM444 578h144c-21 183 -43 410 -64 679c-43 -309 -69 -536 -80 -679zM1124 0v1619l742 1l2 -325h-323v-307l231 -1v-307h-231v-356l329 1v-324z" />
    <glyph glyph-name="Ccedilla" unicode="&#xc7;" horiz-adv-x="1134" 
d="M1068 1171l4 -155h-367c-5 191 -21 299 -47 324c-26 26 -54 39 -85 39c-35 0 -63 -21 -84 -64c-21 -42 -32 -142 -32 -300v-367c0 -200 11 -318 32 -354s48 -54 81 -54c31 0 60 14 87 42c27 29 42 151 47 366l368 2c-3 -211 -17 -351 -41 -421
c-23 -70 -76 -131 -157 -184s-180 -79 -299 -79c-123 0 -225 22 -305 67s-133 106 -159 185s-39 198 -39 357v473c0 117 4 204 12 262c8 59 32 115 71 169c80 108 225 174 408 174c124 0 226 -24 307 -72s133 -105 156 -171c24 -66 38 -146 42 -239zM510 12h117v-124
c35 0 67 -12 98 -35s46 -56 46 -97c0 -51 -21 -95 -62 -132s-91 -56 -148 -56c-104 0 -170 53 -199 158h148c9 -27 26 -41 50 -41c40 0 59 20 59 60c0 44 -27 66 -83 66c-6 0 -15 0 -26 -1v202z" />
    <glyph glyph-name="Egrave" unicode="&#xc8;" horiz-adv-x="851" 
d="M84 0v1619l742 1l2 -325h-323v-307l231 -1v-307h-231v-356l329 1v-324zM442 1793l-236 271h356l83 -271h-203z" />
    <glyph glyph-name="Eacute" unicode="&#xc9;" horiz-adv-x="851" 
d="M84 0v1619l742 1l2 -325h-323v-307l231 -1v-307h-231v-356l329 1v-324zM335 2064h356l-256 -271h-203z" />
    <glyph glyph-name="Ecircumflex" unicode="&#xca;" horiz-adv-x="851" 
d="M84 0v1619l742 1l2 -325h-323v-307l231 -1v-307h-231v-356l329 1v-324zM544 1793l-111 131l-118 -131h-280l257 282h282l241 -282h-271z" />
    <glyph glyph-name="Edieresis" unicode="&#xcb;" horiz-adv-x="851" 
d="M84 0v1619l742 1l2 -325h-323v-307l231 -1v-307h-231v-356l329 1v-324zM76 2053h276v-260h-276v260zM499 2053h275v-260h-275v260z" />
    <glyph glyph-name="Igrave" unicode="&#xcc;" horiz-adv-x="590" 
d="M84 1620h421v-1620h-421v1620zM311 1793l-236 271h356l83 -271h-203z" />
    <glyph glyph-name="Iacute" unicode="&#xcd;" horiz-adv-x="590" 
d="M84 1620h421v-1620h-421v1620zM209 2064h356l-256 -271h-203z" />
    <glyph glyph-name="Icircumflex" unicode="&#xce;" horiz-adv-x="590" 
d="M84 1620h421v-1620h-421v1620zM418 1793l-111 131l-118 -131h-280l257 282h282l241 -282h-271z" />
    <glyph glyph-name="Idieresis" unicode="&#xcf;" horiz-adv-x="590" 
d="M84 1620h421v-1620h-421v1620zM-50 2053h276v-260h-276v260zM373 2053h275v-260h-275v260z" />
    <glyph glyph-name="Eth.001" unicode="&#xd0;" horiz-adv-x="1024" 
 />
    <glyph glyph-name="Ntilde" unicode="&#xd1;" horiz-adv-x="1109" 
d="M661 1619h363v-1619h-334l-242 707v-707h-364v1619l332 1l245 -693v692zM814 2098l183 -97c-47 -96 -92 -157 -137 -184s-84 -40 -118 -40c-47 0 -98 11 -153 33l-74 29c-47 19 -83 29 -106 29c-49 0 -90 -33 -122 -100l-176 118c87 137 176 206 268 206
c48 0 100 -11 157 -32l62 -23c52 -19 87 -29 106 -29c55 0 92 30 110 90z" />
    <glyph glyph-name="Ograve" unicode="&#xd2;" horiz-adv-x="1119" 
d="M1046 948v-277c0 -163 -4 -278 -12 -346c-7 -67 -31 -129 -72 -185c-80 -112 -220 -174 -403 -174c-173 0 -316 57 -400 170c-42 57 -67 118 -75 185s-12 183 -12 350v277c0 163 4 278 11 345c8 68 32 130 72 186c81 112 221 174 404 174c173 0 316 -57 400 -170
c42 -57 67 -118 75 -185s12 -183 12 -350zM644 591v429c0 197 -7 306 -22 327s-35 32 -61 32c-22 0 -43 -9 -62 -27c-19 -17 -28 -128 -28 -333v-441c0 -183 7 -285 22 -306s37 -32 65 -32c29 0 50 12 64 37c15 25 22 130 22 314zM576 1793l-236 271h356l83 -271h-203z" />
    <glyph glyph-name="Oacute" unicode="&#xd3;" horiz-adv-x="1119" 
d="M1046 948v-277c0 -163 -4 -278 -12 -346c-7 -67 -31 -129 -72 -185c-80 -112 -220 -174 -403 -174c-173 0 -316 57 -400 170c-42 57 -67 118 -75 185s-12 183 -12 350v277c0 163 4 278 11 345c8 68 32 130 72 186c81 112 221 174 404 174c173 0 316 -57 400 -170
c42 -57 67 -118 75 -185s12 -183 12 -350zM644 591v429c0 197 -7 306 -22 327s-35 32 -61 32c-22 0 -43 -9 -62 -27c-19 -17 -28 -128 -28 -333v-441c0 -183 7 -285 22 -306s37 -32 65 -32c29 0 50 12 64 37c15 25 22 130 22 314zM469 2064h356l-256 -271h-203z" />
    <glyph glyph-name="Ocircumflex" unicode="&#xd4;" horiz-adv-x="1119" 
d="M1046 948v-277c0 -163 -4 -278 -12 -346c-7 -67 -31 -129 -72 -185c-80 -112 -220 -174 -403 -174c-173 0 -316 57 -400 170c-42 57 -67 118 -75 185s-12 183 -12 350v277c0 163 4 278 11 345c8 68 32 130 72 186c81 112 221 174 404 174c173 0 316 -57 400 -170
c42 -57 67 -118 75 -185s12 -183 12 -350zM644 591v429c0 197 -7 306 -22 327s-35 32 -61 32c-22 0 -43 -9 -62 -27c-19 -17 -28 -128 -28 -333v-441c0 -183 7 -285 22 -306s37 -32 65 -32c29 0 50 12 64 37c15 25 22 130 22 314zM678 1793l-111 131l-118 -131h-280l257 282
h282l241 -282h-271z" />
    <glyph glyph-name="Acircumflex" unicode="&#xc2;" horiz-adv-x="1040" 
d="M256 1618h508l288 -1618l-414 -1l-21 291l-189 -1l-25 -291l-415 2zM444 578h144c-21 183 -43 410 -64 679c-43 -309 -69 -536 -80 -679zM639 1793l-111 131l-118 -131h-280l257 282h282l241 -282h-271z" />
    <glyph glyph-name="Aacute" unicode="&#xc1;" horiz-adv-x="1040" 
d="M256 1618h508l288 -1618l-414 -1l-21 291l-189 -1l-25 -291l-415 2zM444 578h144c-21 183 -43 410 -64 679c-43 -309 -69 -536 -80 -679zM430 2064h356l-256 -271h-203z" />
    <glyph glyph-name="Agrave" unicode="&#xc0;" horiz-adv-x="1040" 
d="M256 1618h508l288 -1618l-414 -1l-21 291l-189 -1l-25 -291l-415 2zM444 578h144c-21 183 -43 410 -64 679c-43 -309 -69 -536 -80 -679zM536 1793l-236 271h356l83 -271h-203z" />
    <glyph glyph-name="dagger" unicode="&#x2020;" horiz-adv-x="361" 
d="M72 -265l1 1911h217l-1 -1911h-217zM-96 802h554v-279h-554v279z" />
    <glyph glyph-name="ellipsis" unicode="&#x2026;" horiz-adv-x="1134" 
d="M35 318h305l1 -318h-305zM413 318h305l1 -318h-305zM791 318h305l1 -318h-305z" />
    <glyph glyph-name="guillemotright" unicode="&#xbb;" horiz-adv-x="849" 
d="M243 687l-123 551h237l123 -551l-123 -563h-237zM609 687l-122 551h237l122 -551l-122 -563h-237z" />
  </font>
</defs>
</svg>
